<svg xmlns="http://www.w3.org/2000/svg"
 xmlns:xlink="http://www.w3.org/1999/xlink"
 width="34px" height="34px"  viewBox="0 0 34 34">
<path fill-rule="evenodd"  fill="#ffffff"
 d="M27.663391,6.324707 C28.035995,6.3378906 28.408882,6.351074 28.781479,6.364258 C29.090187,6.364258 29.497025,6.3359375 29.73993,6.404297 C30.245758,6.404297 30.751678,6.404297 31.257507,6.404297 C31.661102,6.5493164 31.972382,6.85791 32.01625,7.364746 C32.0029,7.364746 31.98964,7.364746 31.976288,7.364746 C31.963036,7.444336 31.949684,7.524414 31.936333,7.604492 C31.92308,7.604492 31.909729,7.604492 31.89647,7.604492 C31.89647,7.6445312 31.89647,7.6845703 31.89647,7.7246094 C31.869858,7.737793 31.843155,7.7509766 31.816551,7.7646484 C31.816551,7.791504 31.816551,7.817871 31.816551,7.8447266 C31.497162,8.151367 31.17759,8.458008 30.858109,8.764648 C29.926468,9.7109375 28.994438,10.658691 28.062698,11.60498 C26.638481,11.60498 25.213882,11.60498 23.789665,11.60498 C23.470276,11.937988 23.150703,12.271973 22.831223,12.60498 C22.764656,12.658691 22.69809,12.711914 22.631523,12.765137 C22.353813,13.149414 22.002762,13.435059 21.673172,13.765137 C21.233917,14.21875 20.794556,14.671875 20.355293,15.125977 C20.089508,15.317871 19.864723,15.537109 19.636414,15.765625 C18.957588,16.458984 18.278572,17.152344 17.599747,17.845703 C17.559883,17.845703 17.519928,17.845703 17.479965,17.845703 C17.466705,17.87207 17.453354,17.898926 17.440002,17.925781 C17.373535,17.938965 17.306969,17.952637 17.240402,17.965332 C17.240402,17.979004 17.240402,17.992188 17.240402,18.00586 C17.00856,18.07959 16.590378,17.918945 16.481567,17.845703 C16.415092,17.765625 16.348526,17.685547 16.28196,17.605469 C16.255356,17.592285 16.228653,17.578613 16.202042,17.565918 C16.188782,17.512695 16.17543,17.458984 16.162178,17.405762 C16.148827,17.405762 16.135475,17.405762 16.122223,17.405762 C16.122223,17.379395 16.122223,17.35205 16.122223,17.325684 C16.108871,17.325684 16.095612,17.325684 16.08226,17.325684 C16.08226,17.298828 16.08226,17.27246 16.08226,17.245605 C16.068909,17.245605 16.055649,17.245605 16.042297,17.245605 C16.042297,17.085938 16.042297,16.925781 16.042297,16.765625 C16.055649,16.765625 16.068909,16.765625 16.08226,16.765625 C16.095612,16.712402 16.108871,16.658691 16.122223,16.605469 C16.135475,16.605469 16.148827,16.605469 16.162178,16.605469 C16.162178,16.565918 16.162178,16.52539 16.162178,16.485352 C16.188782,16.472168 16.215393,16.458984 16.242004,16.4458 C16.242004,16.418457 16.242004,16.39209 16.242004,16.365234 C16.255356,16.365234 16.268608,16.365234 16.28196,16.365234 C16.33928,16.294922 16.372559,16.269531 16.401741,16.165527 C16.428345,16.165527 16.454956,16.165527 16.481567,16.165527 C16.509796,16.041992 16.559479,15.995605 16.68126,15.965332 C16.68126,15.938965 16.68126,15.912109 16.68126,15.885254 C16.70787,15.885254 16.734573,15.885254 16.761185,15.885254 C16.761185,15.858887 16.761185,15.832031 16.761185,15.805664 C16.787788,15.805664 16.814392,15.805664 16.841003,15.805664 C16.841003,15.778809 16.841003,15.751953 16.841003,15.725586 C16.867615,15.725586 16.894318,15.725586 16.920921,15.725586 C16.920921,15.69873 16.920921,15.671875 16.920921,15.645508 C16.947525,15.645508 16.974136,15.645508 17.000748,15.645508 C17.02964,15.535156 17.011902,15.556152 17.12053,15.525879 C17.12053,15.498535 17.12053,15.472168 17.12053,15.4453125 C17.147232,15.4453125 17.173836,15.4453125 17.20044,15.4453125 C17.20044,15.418945 17.20044,15.39209 17.20044,15.365234 C17.22705,15.365234 17.253662,15.365234 17.280266,15.365234 C17.280266,15.338867 17.280266,15.312012 17.280266,15.285645 C17.306969,15.285645 17.333572,15.285645 17.360184,15.285645 C17.360184,15.258789 17.360184,15.231934 17.360184,15.205566 C17.386795,15.205566 17.413399,15.205566 17.440002,15.205566 C17.440002,15.178711 17.440002,15.152344 17.440002,15.125977 C17.466705,15.125977 17.493317,15.125977 17.519928,15.125977 C17.54882,15.015137 17.531082,15.036133 17.63971,15.005371 C17.63971,14.978516 17.63971,14.95166 17.63971,14.925293 C17.666313,14.925293 17.692917,14.925293 17.71962,14.925293 C17.71962,14.8984375 17.71962,14.87207 17.71962,14.845215 C17.746231,14.845215 17.772842,14.845215 17.799446,14.845215 C17.799446,14.818359 17.799446,14.791992 17.799446,14.765137 C17.82605,14.765137 17.852661,14.765137 17.879364,14.765137 C17.879364,14.73877 17.879364,14.712402 17.879364,14.685547 C17.905975,14.685547 17.932579,14.685547 17.959183,14.685547 C17.959183,14.658691 17.959183,14.631836 17.959183,14.605469 C17.985794,14.605469 18.012405,14.605469 18.039108,14.605469 C18.067902,14.495117 18.05017,14.515625 18.15889,14.485352 C18.15889,14.458496 18.15889,14.431641 18.15889,14.405273 C18.185493,14.405273 18.212097,14.405273 18.238708,14.405273 C18.238708,14.378418 18.238708,14.352051 18.238708,14.325684 C18.26532,14.325684 18.292023,14.325684 18.318626,14.325684 C18.318626,14.298828 18.318626,14.271973 18.318626,14.245605 C18.34523,14.245605 18.371841,14.245605 18.398453,14.245605 C18.398453,14.21875 18.398453,14.192383 18.398453,14.165527 C18.425056,14.165527 18.45176,14.165527 18.478363,14.165527 C18.478363,14.138672 18.478363,14.111816 18.478363,14.085449 C18.504974,14.085449 18.531586,14.085449 18.55819,14.085449 C18.587082,13.975098 18.569351,13.995605 18.67807,13.96582 C18.67807,13.938965 18.67807,13.912109 18.67807,13.885254 C18.704674,13.885254 18.731277,13.885254 18.757889,13.885254 C18.757889,13.858887 18.757889,13.832031 18.757889,13.805664 C18.7845,13.805664 18.811104,13.805664 18.837807,13.805664 C18.890259,13.607422 19.25447,13.347656 19.39685,13.205078 C19.39685,13.191895 19.39685,13.178711 19.39685,13.165527 C19.836113,12.738281 20.275467,12.312012 20.714737,11.884766 C20.85225,11.74707 21.079704,11.41748 21.273773,11.364746 C21.273773,11.338379 21.273773,11.311523 21.273773,11.284668 C21.300385,11.284668 21.326996,11.284668 21.353699,11.284668 C21.353699,11.258301 21.353699,11.231445 21.353699,11.205078 C21.380302,11.205078 21.406906,11.205078 21.433517,11.205078 C21.433517,11.178711 21.433517,11.151367 21.433517,11.125 C21.460129,11.125 21.486732,11.125 21.513435,11.125 C21.542236,11.014648 21.524498,11.035156 21.633217,11.004883 C21.633217,10.978027 21.633217,10.95166 21.633217,10.924805 C21.65982,10.924805 21.686432,10.924805 21.713043,10.924805 C21.713043,10.897949 21.713043,10.871094 21.713043,10.844727 C21.739647,10.844727 21.76635,10.844727 21.792953,10.844727 C21.792953,10.817871 21.792953,10.791504 21.792953,10.764648 C21.819565,10.764648 21.846176,10.764648 21.87278,10.764648 C21.87278,10.737793 21.87278,10.711426 21.87278,10.685059 C21.899384,10.685059 21.926086,10.685059 21.952698,10.685059 C21.952698,10.658203 21.952698,10.631348 21.952698,10.60498 C22.063034,10.575684 22.042053,10.59375 22.07248,10.484863 C22.09909,10.484863 22.125694,10.484863 22.152397,10.484863 C22.152397,10.458008 22.152397,10.431641 22.152397,10.404785 C22.179,10.404785 22.205612,10.404785 22.232224,10.404785 C22.232224,10.378418 22.232224,10.351074 22.232224,10.324707 C22.258827,10.324707 22.28543,10.324707 22.312134,10.324707 C22.312134,10.29834 22.312134,10.271484 22.312134,10.244629 C22.338745,10.244629 22.365356,10.244629 22.39196,10.244629 C22.470642,9.802246 22.431915,9.193359 22.431915,8.68457 C22.431915,7.7509766 22.431915,6.817383 22.431915,5.8842773 C22.528908,5.828125 22.562286,5.734375 22.631523,5.6845703 C22.971893,5.4379883 23.218887,5.135742 23.510147,4.8442383 C24.188965,4.1777344 24.867981,3.5107422 25.546814,2.84375 C25.733154,2.644043 25.919601,2.4438477 26.10585,2.2441406 C26.132553,2.2441406 26.159164,2.2441406 26.185776,2.2441406 C26.199127,2.2172852 26.21238,2.190918 26.22573,2.1640625 C26.252335,2.1640625 26.278946,2.1640625 26.305557,2.1640625 C26.318909,2.1376953 26.33216,2.1108398 26.345512,2.0839844 C26.413223,2.0424805 26.727264,1.9599609 26.864693,2.0039062 C26.864693,2.0170898 26.864693,2.0307617 26.864693,2.0439453 C26.904556,2.0439453 26.944519,2.0439453 26.984474,2.0439453 C26.984474,2.057129 26.984474,2.0703125 26.984474,2.0839844 C27.011078,2.0839844 27.03769,2.0839844 27.0643,2.0839844 C27.077652,2.1108398 27.091003,2.1376953 27.104256,2.1640625 C27.14421,2.1640625 27.184174,2.1640625 27.224037,2.1640625 C27.224037,2.177246 27.224037,2.190918 27.224037,2.2036133 C27.303955,2.270996 27.383774,2.336914 27.4637,2.4042969 C27.4637,2.430664 27.4637,2.4570312 27.4637,2.4838867 C27.476952,2.4838867 27.490303,2.4838867 27.503654,2.4838867 C27.503654,2.5107422 27.503654,2.5375977 27.503654,2.5639648 C27.516907,2.5639648 27.530258,2.5639648 27.543518,2.5639648 C27.543518,2.604004 27.543518,2.644043 27.543518,2.684082 C27.55687,2.684082 27.57022,2.684082 27.58348,2.684082 C27.58348,2.9106445 27.58348,3.137207 27.58348,3.3637695 C27.651947,3.6113281 27.553146,4.0302734 27.623436,4.2841797 C27.636688,4.2841797 27.65004,4.2841797 27.663391,4.2841797 C27.663391,4.963867 27.663391,5.644043 27.663391,6.324707 ZM20.315338,8.084473 C20.195557,8.044922 20.075775,8.004395 19.955894,7.9648438 C19.955894,7.95166 19.955894,7.9379883 19.955894,7.9248047 C19.876068,7.911621 19.796158,7.897949 19.716331,7.8847656 C19.716331,7.8710938 19.716331,7.85791 19.716331,7.8447266 C19.689728,7.8447266 19.663116,7.8447266 19.636414,7.8447266 C19.636414,7.831543 19.636414,7.817871 19.636414,7.8046875 C19.556595,7.791504 19.47667,7.7783203 19.39685,7.7646484 C19.39685,7.7509766 19.39685,7.737793 19.39685,7.7246094 C19.356888,7.7246094 19.316933,7.7246094 19.27707,7.7246094 C19.27707,7.711426 19.27707,7.697754 19.27707,7.6845703 C19.183899,7.6713867 19.090721,7.658203 18.997543,7.6445312 C18.997543,7.6313477 18.997543,7.617676 18.997543,7.604492 C18.904373,7.5913086 18.811104,7.5776367 18.717926,7.5649414 C18.717926,7.5512695 18.717926,7.538086 18.717926,7.524414 C18.198845,7.4316406 17.679565,7.3378906 17.160484,7.244629 C16.987488,7.244629 16.814392,7.244629 16.641304,7.244629 C16.641304,7.230957 16.641304,7.2177734 16.641304,7.2041016 C16.434166,7.1464844 15.518738,7.201172 15.36348,7.244629 C15.190384,7.244629 15.017288,7.244629 14.844299,7.244629 C14.844299,7.2578125 14.844299,7.270996 14.844299,7.2841797 C14.73777,7.2841797 14.631241,7.2841797 14.524811,7.2841797 C14.524811,7.2978516 14.524811,7.311035 14.524811,7.3242188 C14.431641,7.3242188 14.33847,7.3242188 14.245293,7.3242188 C14.245293,7.3378906 14.245293,7.351074 14.245293,7.364746 C14.178726,7.364746 14.11216,7.364746 14.045593,7.364746 C14.045593,7.3779297 14.045593,7.3911133 14.045593,7.404297 C13.965775,7.404297 13.885849,7.404297 13.805939,7.404297 C13.805939,7.4179688 13.805939,7.4316406 13.805939,7.444336 C13.752716,7.444336 13.699509,7.444336 13.646194,7.444336 C13.646194,7.458008 13.646194,7.4711914 13.646194,7.4848633 C13.526413,7.498047 13.406631,7.5117188 13.28685,7.524414 C12.807632,7.6845703 12.328308,7.8447266 11.849182,8.004395 C11.849182,8.018066 11.849182,8.03125 11.849182,8.044922 C11.795975,8.058105 11.7426605,8.071289 11.6894455,8.084473 C11.6894455,8.097656 11.6894455,8.111328 11.6894455,8.124512 C11.662842,8.124512 11.63623,8.124512 11.609528,8.124512 C11.609528,8.137695 11.609528,8.151367 11.609528,8.164551 C11.569664,8.164551 11.529709,8.164551 11.489746,8.164551 C11.489746,8.178223 11.489746,8.191406 11.489746,8.20459 C11.409927,8.231445 11.330002,8.2578125 11.250183,8.284668 C11.250183,8.29834 11.250183,8.311523 11.250183,8.324707 C11.223572,8.324707 11.196869,8.324707 11.170265,8.324707 C11.170265,8.337891 11.170265,8.3515625 11.170265,8.364258 C11.1436615,8.364258 11.11705,8.364258 11.090439,8.364258 C11.090439,8.37793 11.090439,8.391113 11.090439,8.404785 C11.010529,8.431641 10.930702,8.458008 10.850784,8.484863 C10.837524,8.51123 10.824173,8.538086 10.810822,8.564941 C10.731003,8.591309 10.651085,8.618164 10.571259,8.64502 C10.557907,8.671387 10.544655,8.698242 10.531303,8.724609 C10.478088,8.737793 10.424774,8.750977 10.371567,8.764648 C10.358307,8.791016 10.344955,8.818359 10.331604,8.844727 C10.278389,8.85791 10.225174,8.871582 10.17186,8.884277 C10.17186,8.897949 10.17186,8.911133 10.17186,8.924805 C10.132004,8.937988 10.092041,8.95166 10.052078,8.964355 C10.038826,8.991211 10.025475,9.017578 10.012123,9.044434 C9.985519,9.044434 9.958908,9.044434 9.932297,9.044434 C9.905693,9.084961 9.879089,9.124512 9.852478,9.164551 C9.825775,9.164551 9.799164,9.164551 9.77256,9.164551 C9.759209,9.190918 9.745956,9.218262 9.732605,9.244629 C9.705994,9.244629 9.679382,9.244629 9.652779,9.244629 C9.626175,9.284668 9.599472,9.324707 9.572861,9.364746 C9.546249,9.364746 9.519646,9.364746 9.493042,9.364746 C9.466431,9.404785 9.439728,9.444824 9.413116,9.484863 C9.386513,9.484863 9.359909,9.484863 9.333298,9.484863 C9.293335,9.538086 9.25338,9.591309 9.213516,9.64502 C9.186813,9.64502 9.160202,9.64502 9.133598,9.64502 C9.067032,9.724609 9.000465,9.8046875 8.933899,9.885254 C8.907288,9.885254 8.880684,9.885254 8.85408,9.885254 C8.760902,9.991699 8.667725,10.098145 8.574554,10.20459 C8.348251,10.417969 8.121941,10.631836 7.89563,10.844727 C7.89563,10.871094 7.89563,10.897949 7.89563,10.924805 C7.815811,10.991699 7.7358932,11.058105 7.6559753,11.125 C7.6559753,11.151367 7.6559753,11.178711 7.6559753,11.205078 C7.6027603,11.244629 7.5495453,11.284668 7.496231,11.325195 C7.496231,11.3515625 7.496231,11.378418 7.496231,11.405273 C7.456375,11.431641 7.4164124,11.458496 7.3764496,11.485352 C7.3764496,11.511719 7.3764496,11.538574 7.3764496,11.56543 C7.3364944,11.592285 7.296631,11.618652 7.256668,11.64502 C7.256668,11.671387 7.256668,11.698242 7.256668,11.725098 C7.2300644,11.73877 7.2034607,11.751465 7.176758,11.765137 C7.176758,11.791992 7.176758,11.818359 7.176758,11.845215 C7.1368866,11.87207 7.0969315,11.8984375 7.0569763,11.925293 C7.0569763,11.95166 7.0569763,11.978516 7.0569763,12.004883 C7.030365,12.018555 7.0037537,12.031738 6.97715,12.044922 C6.97715,12.071777 6.97715,12.098633 6.97715,12.125 C6.9505463,12.138672 6.9238434,12.151855 6.897232,12.165039 C6.883972,12.218262 6.8706207,12.271973 6.8572693,12.324707 C6.8306656,12.338379 6.804062,12.3515625 6.7774506,12.365234 C6.764099,12.418457 6.750839,12.47168 6.737488,12.524902 C6.710884,12.538574 6.6842804,12.551758 6.657669,12.564941 C6.6310577,12.64502 6.604355,12.724609 6.577751,12.8046875 C6.5511475,12.818359 6.524536,12.831543 6.497925,12.845215 C6.497925,12.871582 6.497925,12.8984375 6.497925,12.925293 C6.4845734,12.925293 6.471321,12.925293 6.4579697,12.925293 C6.4579697,12.952148 6.4579697,12.978516 6.4579697,13.005371 C6.444618,13.005371 6.431366,13.005371 6.4180145,13.005371 C6.4180145,13.032227 6.4180145,13.058594 6.4180145,13.085449 C6.4047546,13.085449 6.391403,13.085449 6.3781433,13.085449 C6.3781433,13.111816 6.3781433,13.138184 6.3781433,13.165527 C6.364792,13.165527 6.3514404,13.165527 6.338188,13.165527 C6.338188,13.191895 6.338188,13.218262 6.338188,13.245117 C6.3248367,13.245117 6.3115845,13.245117 6.298233,13.245117 C6.2716217,13.325195 6.2450104,13.405273 6.2184067,13.485352 C6.205055,13.485352 6.191704,13.485352 6.1784515,13.485352 C6.1784515,13.524902 6.1784515,13.56543 6.1784515,13.60498 C6.1651,13.60498 6.15184,13.60498 6.138489,13.60498 C6.138489,13.631836 6.138489,13.658203 6.138489,13.685059 C6.1251373,13.685059 6.1118774,13.685059 6.098526,13.685059 C6.098526,13.711914 6.098526,13.738281 6.098526,13.765137 C6.0852737,13.765137 6.0719223,13.765137 6.05867,13.765137 C6.05867,13.791504 6.05867,13.818848 6.05867,13.845215 C6.0453186,13.845215 6.031967,13.845215 6.0187073,13.845215 C6.0187073,13.885254 6.0187073,13.925293 6.0187073,13.96582 C6.005356,13.96582 5.992096,13.96582 5.9787445,13.96582 C5.9787445,13.9921875 5.9787445,14.018555 5.9787445,14.04541 C5.965393,14.04541 5.952141,14.04541 5.9387894,14.04541 C5.925537,14.125 5.9121857,14.205078 5.898926,14.285156 C5.8855743,14.285156 5.872223,14.285156 5.858963,14.285156 C5.858963,14.311523 5.858963,14.338867 5.858963,14.365234 C5.8456116,14.365234 5.8323593,14.365234 5.819008,14.365234 C5.685875,14.845215 5.552742,15.325195 5.4197083,15.805664 C5.3930054,16.045898 5.366394,16.285645 5.3397827,16.52539 C5.3265305,16.52539 5.313179,16.52539 5.2998276,16.52539 C5.2998276,16.632324 5.2998276,16.739258 5.2998276,16.845703 C5.2865753,16.845703 5.273224,16.845703 5.259964,16.845703 C5.259964,17.019043 5.259964,17.192383 5.259964,17.365723 C5.2466125,17.365723 5.233261,17.365723 5.220001,17.365723 C5.162216,17.573242 5.216385,18.490723 5.259964,18.645996 C5.259964,18.819336 5.259964,18.992676 5.259964,19.166016 C5.273224,19.166016 5.2865753,19.166016 5.2998276,19.166016 C5.2998276,19.27246 5.2998276,19.379395 5.2998276,19.486328 C5.313179,19.486328 5.3265305,19.486328 5.3397827,19.486328 C5.3397827,19.579102 5.3397827,19.672363 5.3397827,19.766113 C5.353134,19.766113 5.366394,19.766113 5.3797455,19.766113 C5.3797455,19.83252 5.3797455,19.899414 5.3797455,19.96582 C5.3930054,19.96582 5.406357,19.96582 5.4197083,19.96582 C5.4197083,20.045898 5.4197083,20.126465 5.4197083,20.206055 C5.4329605,20.206055 5.446312,20.206055 5.459564,20.206055 C5.459564,20.259766 5.459564,20.312988 5.459564,20.365723 C5.4729156,20.365723 5.486267,20.365723 5.499527,20.365723 C5.499527,20.432617 5.499527,20.499023 5.499527,20.565918 C5.5128784,20.565918 5.5261383,20.565918 5.5394897,20.565918 C5.5394897,20.61914 5.5394897,20.672852 5.5394897,20.726074 C5.552742,20.726074 5.5660934,20.726074 5.579445,20.726074 C5.592697,20.819824 5.6060486,20.912598 5.6193085,21.006348 C5.63266,21.006348 5.6460114,21.006348 5.6592712,21.006348 C5.6592712,21.046387 5.6592712,21.086426 5.6592712,21.125977 C5.6726227,21.125977 5.685875,21.125977 5.6992264,21.125977 C5.6992264,21.179688 5.6992264,21.23291 5.6992264,21.286133 C5.7124786,21.286133 5.72583,21.286133 5.7391815,21.286133 C5.7391815,21.326172 5.7391815,21.36621 5.7391815,21.405762 C5.7524414,21.405762 5.765793,21.405762 5.7790527,21.405762 C5.7790527,21.44629 5.7790527,21.48584 5.7790527,21.525879 C5.792404,21.525879 5.8057556,21.525879 5.819008,21.525879 C5.819008,21.566406 5.819008,21.605957 5.819008,21.645996 C5.8323593,21.645996 5.8456116,21.645996 5.858963,21.645996 C5.858963,21.672852 5.858963,21.699707 5.858963,21.726074 C5.872223,21.726074 5.8855743,21.726074 5.898926,21.726074 C5.9121857,21.806152 5.925537,21.88623 5.9387894,21.966309 C5.952141,21.966309 5.965393,21.966309 5.9787445,21.966309 C5.9787445,21.992676 5.9787445,22.019531 5.9787445,22.045898 C5.992096,22.045898 6.005356,22.045898 6.0187073,22.045898 C6.0187073,22.086426 6.0187073,22.125977 6.0187073,22.166504 C6.031967,22.166504 6.0453186,22.166504 6.05867,22.166504 C6.0719223,22.219727 6.0852737,22.27295 6.098526,22.326172 C6.1118774,22.326172 6.1251373,22.326172 6.138489,22.326172 C6.138489,22.353516 6.138489,22.379883 6.138489,22.40625 C6.15184,22.40625 6.1651,22.40625 6.1784515,22.40625 C6.1784515,22.44629 6.1784515,22.486328 6.1784515,22.526367 C6.191704,22.526367 6.205055,22.526367 6.2184067,22.526367 C6.2450104,22.606445 6.2716217,22.686523 6.298233,22.766113 C6.3115845,22.766113 6.3248367,22.766113 6.338188,22.766113 C6.338188,22.792969 6.338188,22.819336 6.338188,22.846191 C6.3514404,22.846191 6.364792,22.846191 6.3781433,22.846191 C6.3781433,22.873047 6.3781433,22.899902 6.3781433,22.92627 C6.391403,22.92627 6.4047546,22.92627 6.4180145,22.92627 C6.444618,23.006348 6.471321,23.086426 6.497925,23.166504 C6.524536,23.179688 6.5511475,23.192871 6.577751,23.206055 C6.604355,23.286133 6.6310577,23.36621 6.657669,23.44629 C6.6842804,23.45996 6.710884,23.473145 6.737488,23.486328 C6.750839,23.54004 6.764099,23.593262 6.7774506,23.646484 C6.804062,23.659668 6.8306656,23.67334 6.8572693,23.686523 C6.8706207,23.739746 6.883972,23.793457 6.897232,23.84668 C6.9238434,23.859375 6.9505463,23.873047 6.97715,23.88623 C6.97715,23.913086 6.97715,23.939941 6.97715,23.966797 C6.990402,23.966797 7.0037537,23.966797 7.0170135,23.966797 C7.030365,24.006348 7.0437164,24.046387 7.0569763,24.086426 C7.08358,24.100098 7.110283,24.113281 7.1368866,24.126465 C7.1368866,24.15332 7.1368866,24.179688 7.1368866,24.207031 C7.176758,24.233398 7.216713,24.260254 7.256668,24.286621 C7.256668,24.312988 7.256668,24.340332 7.256668,24.3667 C7.296631,24.393066 7.3364944,24.419922 7.3764496,24.44629 C7.3764496,24.473145 7.3764496,24.5 7.3764496,24.526367 C7.4164124,24.553223 7.456375,24.57959 7.496231,24.606934 C7.496231,24.6333 7.496231,24.660156 7.496231,24.686523 C7.5495453,24.72705 7.6027603,24.766602 7.6559753,24.806152 C7.6559753,24.833008 7.6559753,24.859863 7.6559753,24.886719 C7.7358932,24.953125 7.815811,25.02002 7.89563,25.086426 C7.89563,25.113281 7.89563,25.139648 7.89563,25.166504 C8.121941,25.379883 8.348251,25.593262 8.574554,25.80664 C8.667725,25.913086 8.760902,26.02002 8.85408,26.126465 C8.880684,26.126465 8.907288,26.126465 8.933899,26.126465 C9.000465,26.206543 9.067032,26.286621 9.133598,26.3667 C9.160202,26.3667 9.186813,26.3667 9.213516,26.3667 C9.25338,26.42041 9.293335,26.473633 9.333298,26.526855 C9.359909,26.526855 9.386513,26.526855 9.413116,26.526855 C9.439728,26.566895 9.466431,26.606934 9.493042,26.646973 C9.519646,26.646973 9.546249,26.646973 9.572861,26.646973 C9.599472,26.687012 9.626175,26.72705 9.652779,26.766602 C9.679382,26.766602 9.705994,26.766602 9.732605,26.766602 C9.759209,26.80664 9.785912,26.84668 9.812515,26.886719 C9.839127,26.886719 9.865738,26.886719 9.892342,26.886719 C9.905693,26.913574 9.918945,26.94043 9.932297,26.966797 C9.958908,26.966797 9.985519,26.966797 10.012123,26.966797 C10.025475,26.993652 10.038826,27.02002 10.052078,27.046875 C10.092041,27.060059 10.132004,27.07373 10.17186,27.086914 C10.17186,27.100098 10.17186,27.11377 10.17186,27.126465 C10.225174,27.140137 10.278389,27.15332 10.331604,27.166992 C10.344955,27.19336 10.358307,27.220215 10.371567,27.24707 C10.424774,27.260254 10.478088,27.273438 10.531303,27.286621 C10.544655,27.313477 10.557907,27.340332 10.571259,27.3667 C10.651085,27.393555 10.731003,27.419922 10.810822,27.446777 C10.824173,27.473633 10.837524,27.5 10.850784,27.526855 C10.877396,27.526855 10.9040985,27.526855 10.930702,27.526855 C10.930702,27.54004 10.930702,27.55371 10.930702,27.566406 C10.957306,27.566406 10.983917,27.566406 11.010529,27.566406 C11.010529,27.580078 11.010529,27.593262 11.010529,27.606934 C11.037132,27.606934 11.063835,27.606934 11.090439,27.606934 C11.090439,27.620117 11.090439,27.63379 11.090439,27.646484 C11.11705,27.646484 11.1436615,27.646484 11.170265,27.646484 C11.170265,27.660156 11.170265,27.67334 11.170265,27.687012 C11.196869,27.687012 11.223572,27.687012 11.250183,27.687012 C11.250183,27.699707 11.250183,27.713379 11.250183,27.72705 C11.276794,27.72705 11.303398,27.72705 11.330002,27.72705 C11.330002,27.740234 11.330002,27.753418 11.330002,27.76709 C11.409927,27.793457 11.489746,27.820312 11.569664,27.84668 C11.569664,27.860352 11.569664,27.874023 11.569664,27.886719 C11.636139,27.90039 11.702797,27.913574 11.769272,27.926758 C11.769272,27.94043 11.769272,27.953613 11.769272,27.966797 C11.795876,27.966797 11.822578,27.966797 11.849182,27.966797 C11.849182,27.97998 11.849182,27.993652 11.849182,28.006836 C11.889145,28.006836 11.9290085,28.006836 11.968964,28.006836 C11.968964,28.020508 11.968964,28.033691 11.968964,28.047363 C11.995575,28.047363 12.022186,28.047363 12.048889,28.047363 C12.048889,28.060059 12.048889,28.07373 12.048889,28.086914 C12.128708,28.100586 12.208626,28.113281 12.288452,28.126953 C12.288452,28.140137 12.288452,28.153809 12.288452,28.166992 C12.315056,28.166992 12.34166,28.166992 12.368362,28.166992 C12.368362,28.180664 12.368362,28.19336 12.368362,28.207031 C12.488144,28.233887 12.607925,28.260254 12.727707,28.28711 C12.727707,28.300293 12.727707,28.313965 12.727707,28.327148 C12.781021,28.327148 12.834236,28.327148 12.887451,28.327148 C12.887451,28.340332 12.887451,28.353516 12.887451,28.3667 C12.927414,28.3667 12.967369,28.3667 13.007324,28.3667 C13.007324,28.380371 13.007324,28.393555 13.007324,28.407227 C13.100403,28.42041 13.19368,28.433594 13.28685,28.447266 C13.28685,28.46045 13.28685,28.473633 13.28685,28.486816 C13.340065,28.486816 13.39328,28.486816 13.446594,28.486816 C13.446594,28.500488 13.446594,28.513672 13.446594,28.526855 C13.566376,28.540527 13.686157,28.55371 13.805939,28.567383 C13.805939,28.580078 13.805939,28.59375 13.805939,28.606934 C13.885849,28.606934 13.965775,28.606934 14.045593,28.606934 C14.045593,28.620605 14.045593,28.6333 14.045593,28.646973 C14.11216,28.646973 14.178726,28.646973 14.245293,28.646973 C14.245293,28.660156 14.245293,28.673828 14.245293,28.687012 C14.33847,28.687012 14.431641,28.687012 14.524811,28.687012 C14.524811,28.700684 14.524811,28.713379 14.524811,28.72705 C14.804337,28.740234 15.083954,28.753418 15.36348,28.76709 C15.36348,28.780273 15.36348,28.793945 15.36348,28.807129 C15.570709,28.864746 16.486145,28.810547 16.641304,28.76709 C16.920822,28.753418 17.20044,28.740234 17.479965,28.72705 C17.479965,28.713379 17.479965,28.700684 17.479965,28.687012 C17.573135,28.687012 17.666313,28.687012 17.759491,28.687012 C17.759491,28.673828 17.759491,28.660156 17.759491,28.646973 C17.82605,28.646973 17.892624,28.646973 17.959183,28.646973 C17.959183,28.6333 17.959183,28.620605 17.959183,28.606934 C18.039108,28.606934 18.118927,28.606934 18.198845,28.606934 C18.198845,28.59375 18.198845,28.580078 18.198845,28.567383 C18.25206,28.567383 18.305275,28.567383 18.358582,28.567383 C18.358582,28.55371 18.358582,28.540527 18.358582,28.526855 C18.478363,28.513672 18.598145,28.500488 18.717926,28.486816 C18.717926,28.473633 18.717926,28.46045 18.717926,28.447266 C18.757889,28.447266 18.797852,28.447266 18.837807,28.447266 C18.837807,28.433594 18.837807,28.42041 18.837807,28.407227 C18.891022,28.407227 18.944237,28.407227 18.997543,28.407227 C18.997543,28.393555 18.997543,28.380371 18.997543,28.3667 C19.037415,28.3667 19.07737,28.3667 19.117325,28.3667 C19.117325,28.353516 19.117325,28.340332 19.117325,28.327148 C19.170547,28.327148 19.223755,28.327148 19.27707,28.327148 C19.27707,28.313965 19.27707,28.300293 19.27707,28.28711 C19.316933,28.28711 19.356888,28.28711 19.39685,28.28711 C19.39685,28.273926 19.39685,28.260254 19.39685,28.24707 C19.436813,28.24707 19.476768,28.24707 19.516632,28.24707 C19.516632,28.233887 19.516632,28.220215 19.516632,28.207031 C19.556595,28.207031 19.59655,28.207031 19.636414,28.207031 C19.636414,28.19336 19.636414,28.180664 19.636414,28.166992 C19.663116,28.166992 19.689728,28.166992 19.716331,28.166992 C19.716331,28.153809 19.716331,28.140137 19.716331,28.126953 C19.796158,28.113281 19.876068,28.100586 19.955894,28.086914 C19.955894,28.07373 19.955894,28.060059 19.955894,28.047363 C19.982597,28.047363 20.009201,28.047363 20.035812,28.047363 C20.035812,28.033691 20.035812,28.020508 20.035812,28.006836 C20.075775,28.006836 20.115631,28.006836 20.155594,28.006836 C20.155594,27.993652 20.155594,27.97998 20.155594,27.966797 C20.208809,27.953613 20.262115,27.94043 20.315338,27.926758 C20.315338,27.913574 20.315338,27.90039 20.315338,27.886719 C20.341942,27.886719 20.368645,27.886719 20.395248,27.886719 C20.395248,27.874023 20.395248,27.860352 20.395248,27.84668 C20.43512,27.84668 20.475075,27.84668 20.51503,27.84668 C20.51503,27.833496 20.51503,27.820312 20.51503,27.80664 C20.594856,27.780273 20.674774,27.753418 20.754593,27.72705 C20.754593,27.713379 20.754593,27.699707 20.754593,27.687012 C20.781296,27.687012 20.807907,27.687012 20.834518,27.687012 C20.834518,27.67334 20.834518,27.660156 20.834518,27.646484 C20.861122,27.646484 20.887726,27.646484 20.914337,27.646484 C20.914337,27.63379 20.914337,27.620117 20.914337,27.606934 C20.994255,27.580078 21.074081,27.55371 21.153992,27.526855 C21.167252,27.5 21.180603,27.473633 21.193954,27.446777 C21.273773,27.419922 21.353699,27.393555 21.433517,27.3667 C21.446869,27.340332 21.460129,27.313477 21.47348,27.286621 C21.526688,27.273438 21.580002,27.260254 21.633217,27.24707 C21.64647,27.220215 21.65982,27.19336 21.673172,27.166992 C21.726395,27.15332 21.779602,27.140137 21.832916,27.126465 C21.846176,27.100098 21.859528,27.07373 21.87278,27.046875 C21.899384,27.046875 21.926086,27.046875 21.952698,27.046875 C21.952698,27.033691 21.952698,27.02002 21.952698,27.006836 C21.992561,26.993652 22.032516,26.97998 22.07248,26.966797 C22.08583,26.94043 22.09909,26.913574 22.112442,26.886719 C22.139046,26.886719 22.16565,26.886719 22.19226,26.886719 C22.205612,26.860352 22.218872,26.833496 22.232224,26.80664 C22.272179,26.793457 22.312134,26.779785 22.352005,26.766602 C22.378609,26.72705 22.405312,26.687012 22.431915,26.646973 C22.458527,26.646973 22.485138,26.646973 22.511742,26.646973 C22.538345,26.606934 22.565048,26.566895 22.59166,26.526855 C22.61827,26.526855 22.644875,26.526855 22.671478,26.526855 C22.711441,26.473633 22.751404,26.42041 22.79126,26.3667 C22.817963,26.3667 22.844574,26.3667 22.871185,26.3667 C22.937744,26.286621 23.004318,26.206543 23.070877,26.126465 C23.097488,26.126465 23.1241,26.126465 23.150703,26.126465 C23.283836,25.97998 23.41697,25.833496 23.550102,25.686523 C23.73645,25.513184 23.922798,25.339844 24.109146,25.166504 C24.109146,25.139648 24.109146,25.113281 24.109146,25.086426 C24.189064,25.02002 24.26889,24.953125 24.3488,24.886719 C24.3488,24.859863 24.3488,24.833008 24.3488,24.806152 C24.402023,24.766602 24.45523,24.72705 24.508545,24.686523 C24.508545,24.660156 24.508545,24.6333 24.508545,24.606934 C24.548409,24.57959 24.588364,24.553223 24.628326,24.526367 C24.628326,24.5 24.628326,24.473145 24.628326,24.44629 C24.66829,24.419922 24.708145,24.393066 24.748108,24.3667 C24.76146,24.32666 24.77472,24.286621 24.78807,24.246582 C24.814674,24.233398 24.841278,24.219727 24.86789,24.207031 C24.86789,24.179688 24.86789,24.15332 24.86789,24.126465 C24.8945,24.113281 24.921204,24.100098 24.947807,24.086426 C24.96106,24.046387 24.974411,24.006348 24.987762,23.966797 C25.001022,23.966797 25.014374,23.966797 25.027634,23.966797 C25.027634,23.939941 25.027634,23.913086 25.027634,23.88623 C25.054237,23.873047 25.08094,23.859375 25.107544,23.84668 C25.120804,23.793457 25.134155,23.739746 25.147507,23.686523 C25.174118,23.67334 25.200722,23.659668 25.227325,23.646484 C25.240677,23.593262 25.253937,23.54004 25.267288,23.486328 C25.2939,23.473145 25.320503,23.45996 25.347107,23.44629 C25.373718,23.36621 25.400421,23.286133 25.427032,23.206055 C25.453636,23.192871 25.48024,23.179688 25.506851,23.166504 C25.506851,23.139648 25.506851,23.112793 25.506851,23.086426 C25.520203,23.086426 25.533463,23.086426 25.546814,23.086426 C25.546814,23.05957 25.546814,23.033203 25.546814,23.006348 C25.560165,23.006348 25.573418,23.006348 25.58677,23.006348 C25.58677,22.979492 25.58677,22.953125 25.58677,22.92627 C25.600021,22.92627 25.613373,22.92627 25.626633,22.92627 C25.626633,22.899902 25.626633,22.873047 25.626633,22.846191 C25.639984,22.846191 25.653336,22.846191 25.666595,22.846191 C25.666595,22.819336 25.666595,22.792969 25.666595,22.766113 C25.679947,22.766113 25.6932,22.766113 25.70655,22.766113 C25.70655,22.739746 25.70655,22.71289 25.70655,22.686523 C25.719902,22.686523 25.733154,22.686523 25.746506,22.686523 C25.773117,22.606445 25.799728,22.526367 25.826332,22.44629 C25.839684,22.44629 25.852936,22.44629 25.866287,22.44629 C25.866287,22.40625 25.866287,22.36621 25.866287,22.326172 C25.879639,22.326172 25.892899,22.326172 25.90625,22.326172 C25.91951,22.27295 25.932861,22.219727 25.946114,22.166504 C25.959465,22.166504 25.972816,22.166504 25.986069,22.166504 C26.145813,21.686523 26.305557,21.206055 26.465294,20.726074 C26.478645,20.605957 26.491898,20.48584 26.505249,20.365723 C26.518509,20.365723 26.53186,20.365723 26.545212,20.365723 C26.545212,20.312988 26.545212,20.259766 26.545212,20.206055 C26.558472,20.206055 26.571823,20.206055 26.585075,20.206055 C26.585075,20.126465 26.585075,20.045898 26.585075,19.96582 C26.598427,19.96582 26.611778,19.96582 26.62503,19.96582 C26.62503,19.899414 26.62503,19.83252 26.62503,19.766113 C26.638382,19.766113 26.651642,19.766113 26.664993,19.766113 C26.691605,19.525879 26.718208,19.285645 26.744812,19.045898 C26.744812,18.912598 26.744812,18.779297 26.744812,18.645996 C26.758163,18.645996 26.771515,18.645996 26.784775,18.645996 C26.842567,18.438477 26.788399,17.520996 26.744812,17.365723 C26.73156,17.085938 26.718208,16.805176 26.704956,16.52539 C26.691605,16.52539 26.678253,16.52539 26.664993,16.52539 C26.664993,16.432129 26.664993,16.339355 26.664993,16.245117 C26.651642,16.245117 26.638382,16.245117 26.62503,16.245117 C26.62503,16.1792 26.62503,16.111816 26.62503,16.045898 C26.611778,16.045898 26.598427,16.045898 26.585075,16.045898 C26.585075,15.965332 26.585075,15.885254 26.585075,15.805664 C26.571823,15.805664 26.558472,15.805664 26.545212,15.805664 C26.53186,15.685547 26.518509,15.56543 26.505249,15.4453125 C26.491898,15.4453125 26.478645,15.4453125 26.465294,15.4453125 C26.465294,15.39209 26.465294,15.338867 26.465294,15.285645 C26.452042,15.285645 26.43869,15.285645 26.425339,15.285645 C26.412079,15.191895 26.398727,15.098633 26.385468,15.005371 C26.372116,15.005371 26.358864,15.005371 26.345512,15.005371 C26.345512,14.965332 26.345512,14.925293 26.345512,14.885742 C26.33216,14.885742 26.318909,14.885742 26.305557,14.885742 C26.305557,14.832031 26.305557,14.778809 26.305557,14.725586 C26.292297,14.725586 26.278946,14.725586 26.265594,14.725586 C26.265594,14.685547 26.265594,14.645508 26.265594,14.605469 C26.252335,14.605469 26.238983,14.605469 26.22573,14.605469 C26.22573,14.56543 26.22573,14.525391 26.22573,14.485352 C26.21238,14.485352 26.199127,14.485352 26.185776,14.485352 C26.185776,14.4453125 26.185776,14.405273 26.185776,14.365234 C26.172424,14.365234 26.159164,14.365234 26.145813,14.365234 C26.145813,14.338867 26.145813,14.311523 26.145813,14.285156 C26.132553,14.285156 26.119202,14.285156 26.10585,14.285156 C26.092598,14.205078 26.079247,14.125 26.065994,14.04541 C26.052643,14.04541 26.039383,14.04541 26.026031,14.04541 C25.986069,13.925293 25.946114,13.805664 25.90625,13.685059 C26.736038,13.688965 27.823227,13.779297 28.462097,13.56543 C28.635094,13.538574 28.808182,13.511719 28.981186,13.485352 C28.981186,13.472168 28.981186,13.458496 28.981186,13.445801 C29.021141,13.432129 29.061096,13.418945 29.100967,13.405273 C29.100967,13.39209 29.100967,13.378418 29.100967,13.365234 C29.178787,13.346191 29.154175,13.388672 29.180878,13.405273 C29.318115,13.529297 29.305527,13.812988 29.380585,14.005371 C29.558441,14.4609375 29.633018,15.032227 29.779884,15.525879 C29.793236,15.69873 29.806488,15.872559 29.81984,16.045898 C29.8331,16.045898 29.84645,16.045898 29.859802,16.045898 C29.859802,16.138672 29.859802,16.232422 29.859802,16.325684 C29.873062,16.325684 29.886414,16.325684 29.899666,16.325684 C29.899666,16.458984 29.899666,16.592285 29.899666,16.725586 C29.913017,16.725586 29.926369,16.725586 29.939621,16.725586 C29.939621,16.898926 29.939621,17.072266 29.939621,17.245605 C30.024406,17.5542 30.026505,18.458008 29.939621,18.765625 C29.939621,18.939453 29.939621,19.112305 29.939621,19.285645 C29.926369,19.285645 29.913017,19.285645 29.899666,19.285645 C29.899666,19.418945 29.899666,19.552734 29.899666,19.686035 C29.886414,19.686035 29.873062,19.686035 29.859802,19.686035 C29.859802,19.779297 29.859802,19.872559 29.859802,19.96582 C29.84645,19.96582 29.8331,19.96582 29.81984,19.96582 C29.81984,20.059082 29.81984,20.152832 29.81984,20.246094 C29.764343,20.434082 29.716751,20.703613 29.660103,20.885742 C29.660103,20.953125 29.660103,21.019043 29.660103,21.086426 C29.646751,21.086426 29.6335,21.086426 29.620148,21.086426 C29.620148,21.13916 29.620148,21.192871 29.620148,21.246094 C29.606888,21.246094 29.593536,21.246094 29.580185,21.246094 C29.580185,21.299316 29.580185,21.35254 29.580185,21.405762 C29.566925,21.405762 29.553574,21.405762 29.540321,21.405762 C29.540321,21.459473 29.540321,21.512695 29.540321,21.566406 C29.52697,21.566406 29.513718,21.566406 29.500366,21.566406 C29.500366,21.619629 29.500366,21.672852 29.500366,21.726074 C29.487015,21.726074 29.473755,21.726074 29.460403,21.726074 C29.460403,21.779297 29.460403,21.833008 29.460403,21.88623 C29.447144,21.88623 29.433792,21.88623 29.42044,21.88623 C29.42044,21.925781 29.42044,21.966309 29.42044,22.006348 C29.407188,22.006348 29.393837,22.006348 29.380585,22.006348 C29.380585,22.045898 29.380585,22.086426 29.380585,22.125977 C29.367233,22.125977 29.353973,22.125977 29.340622,22.125977 C29.340622,22.166504 29.340622,22.206543 29.340622,22.246582 C29.32727,22.246582 29.31401,22.246582 29.30066,22.246582 C29.287407,22.339844 29.274055,22.433105 29.260704,22.526367 C29.247452,22.526367 29.2341,22.526367 29.22084,22.526367 C29.22084,22.553223 29.22084,22.57959 29.22084,22.606445 C29.207489,22.606445 29.19423,22.606445 29.180878,22.606445 C29.154274,22.726562 29.12767,22.846191 29.100967,22.966309 C29.087708,22.966309 29.074356,22.966309 29.061096,22.966309 C29.061096,22.993164 29.061096,23.02002 29.061096,23.046875 C29.047745,23.046875 29.034492,23.046875 29.021141,23.046875 C29.021141,23.086426 29.021141,23.126465 29.021141,23.166504 C29.00779,23.166504 28.994537,23.166504 28.981186,23.166504 C28.967926,23.23291 28.954575,23.299805 28.941223,23.36621 C28.927963,23.36621 28.914612,23.36621 28.90136,23.36621 C28.90136,23.393066 28.90136,23.419922 28.90136,23.44629 C28.888008,23.44629 28.874756,23.44629 28.861404,23.44629 C28.861404,23.486328 28.861404,23.526367 28.861404,23.566406 C28.848053,23.566406 28.834793,23.566406 28.821442,23.566406 C28.79483,23.646484 28.768227,23.726562 28.741623,23.806152 C28.728271,23.806152 28.715012,23.806152 28.70166,23.806152 C28.70166,23.833008 28.70166,23.859375 28.70166,23.88623 C28.688309,23.88623 28.675049,23.88623 28.661697,23.88623 C28.661697,23.92627 28.661697,23.966797 28.661697,24.006348 C28.648445,24.006348 28.635094,24.006348 28.621841,24.006348 C28.595139,24.086426 28.568527,24.166504 28.541916,24.246582 C28.528564,24.246582 28.515312,24.246582 28.50196,24.246582 C28.50196,24.27295 28.50196,24.299805 28.50196,24.32666 C28.488708,24.32666 28.475357,24.32666 28.462097,24.32666 C28.435394,24.40625 28.408783,24.486816 28.38218,24.566406 C28.355576,24.57959 28.328964,24.593262 28.302353,24.606934 C28.302353,24.6333 28.302353,24.660156 28.302353,24.686523 C28.289001,24.686523 28.27565,24.686523 28.262398,24.686523 C28.262398,24.713379 28.262398,24.740234 28.262398,24.766602 C28.249046,24.766602 28.235794,24.766602 28.222443,24.766602 C28.222443,24.793457 28.222443,24.819824 28.222443,24.84668 C28.209091,24.84668 28.195831,24.84668 28.18248,24.84668 C28.18248,24.873535 28.18248,24.90039 28.18248,24.92627 C28.155869,24.939941 28.129265,24.953125 28.102661,24.966309 C28.07605,25.046387 28.049347,25.126953 28.022736,25.206543 C27.996132,25.219727 27.969528,25.233398 27.942917,25.246582 C27.942917,25.27295 27.942917,25.299805 27.942917,25.326172 C27.916306,25.339844 27.889603,25.353027 27.862999,25.3667 C27.849747,25.42041 27.836395,25.473633 27.823135,25.526367 C27.796432,25.54004 27.769821,25.553223 27.743217,25.566406 C27.743217,25.593262 27.743217,25.619629 27.743217,25.646973 C27.716614,25.659668 27.690002,25.67334 27.663391,25.686523 C27.663391,25.71289 27.663391,25.739746 27.663391,25.766602 C27.636688,25.780273 27.610085,25.792969 27.58348,25.80664 C27.58348,25.833496 27.58348,25.859863 27.58348,25.88623 C27.57022,25.88623 27.55687,25.88623 27.543518,25.88623 C27.530258,25.926758 27.516907,25.966309 27.503654,26.006836 C27.476952,26.02002 27.450348,26.033691 27.423737,26.046875 C27.423737,26.073242 27.423737,26.100098 27.423737,26.126465 C27.383774,26.15332 27.343918,26.180176 27.303955,26.206543 C27.303955,26.233398 27.303955,26.259766 27.303955,26.286621 C27.263992,26.313477 27.224037,26.340332 27.184174,26.3667 C27.184174,26.393555 27.184174,26.42041 27.184174,26.446777 C27.14421,26.473633 27.104256,26.5 27.0643,26.526855 C27.0643,26.55371 27.0643,26.580078 27.0643,26.606934 C27.011078,26.646973 26.95787,26.687012 26.904556,26.726562 C26.904556,26.753418 26.904556,26.779785 26.904556,26.80664 C26.851341,26.84668 26.798126,26.886719 26.744812,26.926758 C26.427338,27.368652 26.081436,27.671387 25.70655,28.047363 C25.573418,28.19336 25.440285,28.340332 25.307251,28.486816 C25.280548,28.486816 25.253937,28.486816 25.227325,28.486816 C25.160767,28.567383 25.094193,28.646973 25.027634,28.72705 C25.001022,28.72705 24.974411,28.72705 24.947807,28.72705 C24.894592,28.793945 24.841278,28.860352 24.78807,28.927246 C24.76146,28.927246 24.734756,28.927246 24.708145,28.927246 C24.66829,28.980469 24.628326,29.033691 24.588364,29.086914 C24.56176,29.086914 24.535156,29.086914 24.508545,29.086914 C24.481842,29.126953 24.45523,29.166992 24.428627,29.207031 C24.402023,29.207031 24.375412,29.207031 24.3488,29.207031 C24.322098,29.24707 24.295494,29.28711 24.26889,29.327148 C24.24228,29.327148 24.215668,29.327148 24.189064,29.327148 C24.162361,29.367188 24.135757,29.406738 24.109146,29.447266 C24.082535,29.447266 24.055931,29.447266 24.029327,29.447266 C24.015976,29.473633 24.002625,29.5 23.989365,29.526855 C23.949402,29.540527 23.909447,29.553223 23.869583,29.566895 C23.869583,29.580078 23.869583,29.59375 23.869583,29.606934 C23.84288,29.606934 23.816269,29.606934 23.789665,29.606934 C23.776413,29.63379 23.763062,29.660156 23.74971,29.687012 C23.723099,29.687012 23.696487,29.687012 23.669884,29.687012 C23.656532,29.713867 23.64328,29.740234 23.629929,29.76709 C23.603317,29.76709 23.576706,29.76709 23.550102,29.76709 C23.53675,29.793457 23.5234,29.820312 23.510147,29.847168 C23.456924,29.86084 23.403618,29.873535 23.350403,29.887207 C23.337051,29.913574 23.323792,29.94043 23.31044,29.967285 C23.270485,29.980957 23.230621,29.993652 23.190659,30.007324 C23.190659,30.020508 23.190659,30.03418 23.190659,30.046875 C23.164055,30.046875 23.137451,30.046875 23.110748,30.046875 C23.110748,30.060547 23.110748,30.07373 23.110748,30.087402 C23.084137,30.087402 23.057526,30.087402 23.030922,30.087402 C23.030922,30.100586 23.030922,30.114258 23.030922,30.127441 C23.004318,30.127441 22.977707,30.127441 22.951004,30.127441 C22.937744,30.153809 22.924393,30.180664 22.91114,30.207031 C22.884537,30.207031 22.857834,30.207031 22.831223,30.207031 C22.831223,30.220703 22.831223,30.233887 22.831223,30.247559 C22.804611,30.247559 22.778008,30.247559 22.751404,30.247559 C22.751404,30.260742 22.751404,30.274414 22.751404,30.28711 C22.724792,30.28711 22.69809,30.28711 22.671478,30.28711 C22.671478,30.300781 22.671478,30.313965 22.671478,30.327148 C22.644875,30.327148 22.61827,30.327148 22.59166,30.327148 C22.578308,30.354004 22.565048,30.380371 22.551697,30.407227 C22.471878,30.433594 22.39196,30.46045 22.312134,30.487305 C22.312134,30.500977 22.312134,30.513672 22.312134,30.527344 C22.28543,30.527344 22.258827,30.527344 22.232224,30.527344 C22.232224,30.540527 22.232224,30.5542 22.232224,30.566895 C22.152397,30.59375 22.07248,30.620605 21.99266,30.64746 C21.99266,30.660645 21.99266,30.673828 21.99266,30.6875 C21.952698,30.6875 21.912735,30.6875 21.87278,30.6875 C21.87278,30.700684 21.87278,30.713867 21.87278,30.72705 C21.846176,30.72705 21.819565,30.72705 21.792953,30.72705 C21.792953,30.740234 21.792953,30.753906 21.792953,30.767578 C21.713043,30.793945 21.633217,30.8208 21.553299,30.847168 C21.553299,30.860352 21.553299,30.874023 21.553299,30.887207 C21.513435,30.887207 21.47348,30.887207 21.433517,30.887207 C21.433517,30.900879 21.433517,30.914062 21.433517,30.927246 C21.406906,30.927246 21.380302,30.927246 21.353699,30.927246 C21.353699,30.940918 21.353699,30.953613 21.353699,30.967285 C21.313736,30.967285 21.273773,30.967285 21.233818,30.967285 C21.233818,30.980469 21.233818,30.99414 21.233818,31.007324 C21.207214,31.007324 21.180603,31.007324 21.153992,31.007324 C21.153992,31.020996 21.153992,31.033691 21.153992,31.047363 C21.114037,31.047363 21.074081,31.047363 21.03421,31.047363 C21.03421,31.060547 21.03421,31.07373 21.03421,31.086914 C21.007507,31.086914 20.980904,31.086914 20.9543,31.086914 C20.9543,31.100586 20.9543,31.11377 20.9543,31.126953 C20.834518,31.153809 20.714737,31.180664 20.594856,31.207031 C20.594856,31.220703 20.594856,31.233887 20.594856,31.24707 C20.568253,31.24707 20.541641,31.24707 20.51503,31.24707 C20.51503,31.260254 20.51503,31.273926 20.51503,31.287598 C20.42186,31.300781 20.32869,31.313965 20.235512,31.327148 C20.235512,31.34082 20.235512,31.354004 20.235512,31.367188 C20.195557,31.367188 20.155594,31.367188 20.115631,31.367188 C20.115631,31.380371 20.115631,31.394043 20.115631,31.407227 C20.075775,31.407227 20.035812,31.407227 19.99585,31.407227 C19.99585,31.420898 19.99585,31.434082 19.99585,31.447266 C19.955894,31.447266 19.91603,31.447266 19.876068,31.447266 C19.876068,31.46045 19.876068,31.474121 19.876068,31.486816 C19.82286,31.486816 19.769547,31.486816 19.716331,31.486816 C19.716331,31.500488 19.716331,31.513672 19.716331,31.527344 C19.663116,31.527344 19.609802,31.527344 19.556595,31.527344 C19.556595,31.540527 19.556595,31.5542 19.556595,31.567383 C19.503372,31.567383 19.450066,31.567383 19.39685,31.567383 C19.39685,31.580566 19.39685,31.59375 19.39685,31.607422 C19.343636,31.607422 19.290329,31.607422 19.237106,31.607422 C19.237106,31.620605 19.237106,31.634277 19.237106,31.646973 C19.183899,31.646973 19.130585,31.646973 19.07737,31.646973 C19.07737,31.660645 19.07737,31.673828 19.07737,31.6875 C19.010803,31.6875 18.944237,31.6875 18.87767,31.6875 C18.87767,31.700684 18.87767,31.714355 18.87767,31.72705 C18.811104,31.72705 18.744537,31.72705 18.67807,31.72705 C18.67807,31.740723 18.67807,31.753906 18.67807,31.767578 C18.611496,31.767578 18.544937,31.767578 18.478363,31.767578 C18.478363,31.780273 18.478363,31.793945 18.478363,31.807617 C18.398453,31.807617 18.318626,31.807617 18.238708,31.807617 C18.238708,31.8208 18.238708,31.833984 18.238708,31.847656 C18.05236,31.86084 17.866013,31.874023 17.679665,31.887207 C17.679665,31.90039 17.679665,31.914062 17.679665,31.927246 C17.147232,31.954102 16.6147,31.980957 16.08226,32.007324 C15.616394,31.99414 15.150421,31.980957 14.684555,31.967773 C14.684555,31.954102 14.684555,31.940918 14.684555,31.927246 C14.564774,31.927246 14.4449005,31.927246 14.325119,31.927246 C14.325119,31.914062 14.325119,31.90039 14.325119,31.887207 C14.218689,31.887207 14.11216,31.887207 14.0056305,31.887207 C13.38002,31.753906 12.754318,31.620605 12.128708,31.486816 C11.177704,31.145508 10.205048,30.826172 9.413116,30.327148 C9.386513,30.327148 9.359909,30.327148 9.333298,30.327148 C9.333298,30.313965 9.333298,30.300781 9.333298,30.28711 C9.306686,30.28711 9.2799835,30.28711 9.25338,30.28711 C9.25338,30.274414 9.25338,30.260742 9.25338,30.247559 C9.226776,30.247559 9.200165,30.247559 9.173553,30.247559 C9.173553,30.233887 9.173553,30.220703 9.173553,30.207031 C9.14695,30.207031 9.120247,30.207031 9.093643,30.207031 C9.080383,30.180664 9.067032,30.153809 9.053772,30.127441 C8.973862,30.100586 8.893936,30.07373 8.814117,30.046875 C8.814117,30.03418 8.814117,30.020508 8.814117,30.007324 C8.774155,29.993652 8.734299,29.980957 8.694336,29.967285 C8.6809845,29.94043 8.667725,29.913574 8.654373,29.887207 C8.601166,29.873535 8.547852,29.86084 8.494637,29.847168 C8.494637,29.833984 8.494637,29.820312 8.494637,29.807129 C8.454681,29.793457 8.41481,29.780762 8.374855,29.76709 C8.361504,29.740234 8.348251,29.713867 8.3349,29.687012 C8.308289,29.687012 8.281677,29.687012 8.255074,29.687012 C8.241722,29.660156 8.228371,29.63379 8.215118,29.606934 C8.188507,29.606934 8.161896,29.606934 8.135193,29.606934 C8.135193,29.59375 8.135193,29.580078 8.135193,29.566895 C8.095337,29.553223 8.055374,29.540527 8.015411,29.526855 C8.002159,29.5 7.9888077,29.473633 7.975456,29.447266 C7.9488525,29.447266 7.922241,29.447266 7.89563,29.447266 C7.869026,29.406738 7.8424225,29.367188 7.8157196,29.327148 C7.7891083,29.327148 7.762497,29.327148 7.7358932,29.327148 C7.7092896,29.28711 7.682678,29.24707 7.6559753,29.207031 C7.629364,29.207031 7.6027603,29.207031 7.5761566,29.207031 C7.5495453,29.166992 7.522934,29.126953 7.496231,29.086914 C7.4696274,29.086914 7.4430237,29.086914 7.4164124,29.086914 C7.3764496,29.033691 7.3364944,28.980469 7.296631,28.927246 C7.2700195,28.927246 7.2433167,28.927246 7.216713,28.927246 C7.1901093,28.886719 7.163498,28.847168 7.1368866,28.807129 C7.123535,28.807129 7.110283,28.807129 7.0969315,28.807129 C7.08358,28.780273 7.0703278,28.753418 7.0569763,28.72705 C7.030365,28.72705 7.0037537,28.72705 6.97715,28.72705 C6.9105835,28.646973 6.844017,28.567383 6.7774506,28.486816 C6.750839,28.486816 6.7242355,28.486816 6.697632,28.486816 C6.5378876,28.313965 6.3780518,28.140137 6.2184067,27.966797 C5.992096,27.753418 5.765793,27.54004 5.5394897,27.32666 C5.5394897,27.300293 5.5394897,27.273438 5.5394897,27.24707 C5.459564,27.179688 5.3797455,27.11377 5.2998276,27.046875 C5.2998276,27.02002 5.2998276,26.993652 5.2998276,26.966797 C5.2333527,26.913574 5.1666946,26.860352 5.1002197,26.80664 C5.1002197,26.779785 5.1002197,26.753418 5.1002197,26.726562 C5.046913,26.687012 4.993698,26.646973 4.940483,26.606934 C4.940483,26.580078 4.940483,26.55371 4.940483,26.526855 C4.900528,26.5 4.860565,26.473633 4.8206024,26.446777 C4.8206024,26.42041 4.8206024,26.393555 4.8206024,26.3667 C4.7807465,26.340332 4.7407837,26.313477 4.700821,26.286621 C4.700821,26.259766 4.700821,26.233398 4.700821,26.206543 C4.660866,26.180176 4.621002,26.15332 4.5810394,26.126465 C4.5810394,26.100098 4.5810394,26.073242 4.5810394,26.046875 C4.5544357,26.033691 4.527832,26.02002 4.501129,26.006836 C4.4878693,25.966309 4.474518,25.926758 4.461258,25.88623 C4.4479065,25.88623 4.434654,25.88623 4.421303,25.88623 C4.421303,25.859863 4.421303,25.833496 4.421303,25.80664 C4.394699,25.792969 4.368088,25.780273 4.341385,25.766602 C4.341385,25.739746 4.341385,25.71289 4.341385,25.686523 C4.3147736,25.67334 4.28817,25.659668 4.261566,25.646973 C4.261566,25.619629 4.261566,25.593262 4.261566,25.566406 C4.234955,25.553223 4.2083435,25.54004 4.1816406,25.526367 C4.1683884,25.473633 4.155037,25.42041 4.1417847,25.3667 C4.1151733,25.353027 4.0884705,25.339844 4.061859,25.326172 C4.048607,25.286621 4.0352554,25.246582 4.021904,25.206543 C4.0086517,25.206543 3.9953003,25.206543 3.9820404,25.206543 C3.955429,25.126953 3.9287262,25.046387 3.9021225,24.966309 C3.8755188,24.953125 3.8489075,24.939941 3.8222961,24.92627 C3.8222961,24.90039 3.8222961,24.873535 3.8222961,24.84668 C3.8089447,24.84668 3.7956924,24.84668 3.782341,24.84668 C3.782341,24.819824 3.782341,24.793457 3.782341,24.766602 C3.7689896,24.766602 3.7557373,24.766602 3.7423859,24.766602 C3.7423859,24.740234 3.7423859,24.713379 3.7423859,24.686523 C3.729126,24.686523 3.7157745,24.686523 3.702423,24.686523 C3.702423,24.660156 3.702423,24.6333 3.702423,24.606934 C3.205841,23.813965 2.882553,22.839355 2.5443726,21.88623 C2.531021,21.779297 2.5177689,21.672852 2.5044174,21.566406 C2.4911652,21.566406 2.4778137,21.566406 2.4644623,21.566406 C2.4644623,21.512695 2.4644623,21.459473 2.4644623,21.405762 C2.4512024,21.405762 2.437851,21.405762 2.424591,21.405762 C2.424591,21.35254 2.424591,21.299316 2.424591,21.246094 C2.4112396,21.246094 2.3978882,21.246094 2.384636,21.246094 C2.384636,21.192871 2.384636,21.13916 2.384636,21.086426 C2.3712845,21.086426 2.3580322,21.086426 2.3446808,21.086426 C2.3446808,21.019043 2.3446808,20.953125 2.3446808,20.885742 C2.331421,20.885742 2.3180695,20.885742 2.304718,20.885742 C2.2914581,20.752441 2.2781067,20.61914 2.2648544,20.48584 C2.251503,20.48584 2.2381516,20.48584 2.2248993,20.48584 C2.2248993,20.40625 2.2248993,20.325684 2.2248993,20.246094 C2.2115479,20.246094 2.198288,20.246094 2.1849365,20.246094 C2.1849365,20.152832 2.1849365,20.059082 2.1849365,19.96582 C2.1716766,19.96582 2.1583252,19.96582 2.1449738,19.96582 C2.1317215,19.739258 2.11837,19.512695 2.1051178,19.285645 C2.0917664,19.285645 2.078415,19.285645 2.065155,19.285645 C2.065155,19.112305 2.065155,18.939453 2.065155,18.765625 C1.980278,18.45752 1.9782715,17.55371 2.065155,17.245605 C2.065155,17.072266 2.065155,16.898926 2.065155,16.725586 C2.078415,16.725586 2.0917664,16.725586 2.1051178,16.725586 C2.11837,16.499023 2.1317215,16.271973 2.1449738,16.045898 C2.1583252,16.045898 2.1716766,16.045898 2.1849365,16.045898 C2.1849365,15.952637 2.1849365,15.858887 2.1849365,15.765625 C2.2404404,15.577637 2.288025,15.307617 2.3446808,15.125977 C2.3446808,15.058594 2.3446808,14.9921875 2.3446808,14.925293 C2.3580322,14.925293 2.3712845,14.925293 2.384636,14.925293 C2.384636,14.87207 2.384636,14.818359 2.384636,14.765137 C2.3978882,14.765137 2.4112396,14.765137 2.424591,14.765137 C2.424591,14.712402 2.424591,14.658691 2.424591,14.605469 C2.437851,14.605469 2.4512024,14.605469 2.4644623,14.605469 C2.4644623,14.551758 2.4644623,14.498535 2.4644623,14.4453125 C2.4778137,14.4453125 2.4911652,14.4453125 2.5044174,14.4453125 C2.5044174,14.39209 2.5044174,14.338867 2.5044174,14.285156 C2.5177689,14.285156 2.531021,14.285156 2.5443726,14.285156 C2.5443726,14.231934 2.5443726,14.178223 2.5443726,14.125 C2.5576324,14.125 2.570984,14.125 2.5843353,14.125 C2.5843353,14.085449 2.5843353,14.044922 2.5843353,14.005371 C2.5975952,14.005371 2.6109467,14.005371 2.624199,14.005371 C2.624199,13.96582 2.624199,13.925293 2.624199,13.885254 C2.6375504,13.885254 2.6509018,13.885254 2.664154,13.885254 C2.664154,13.845215 2.664154,13.805664 2.664154,13.765137 C2.6775055,13.765137 2.6907654,13.765137 2.7041168,13.765137 C2.7041168,13.711914 2.7041168,13.658203 2.7041168,13.60498 C2.7173767,13.60498 2.7307281,13.60498 2.7440796,13.60498 C2.7440796,13.56543 2.7440796,13.524902 2.7440796,13.485352 C2.7573318,13.485352 2.7706833,13.485352 2.7839355,13.485352 C2.7839355,13.458496 2.7839355,13.432129 2.7839355,13.405273 C2.797287,13.405273 2.8105469,13.405273 2.8238983,13.405273 C2.8505096,13.285156 2.8771133,13.165527 2.9038162,13.044922 C2.9170685,13.044922 2.93042,13.044922 2.9436798,13.044922 C2.9436798,13.018555 2.9436798,12.991699 2.9436798,12.964844 C2.9570312,12.964844 2.9702911,12.964844 2.9836426,12.964844 C2.9836426,12.925293 2.9836426,12.885254 2.9836426,12.845215 C2.996994,12.845215 3.0102463,12.845215 3.0235977,12.845215 C3.0235977,12.818359 3.0235977,12.791992 3.0235977,12.765137 C3.03685,12.765137 3.0502014,12.765137 3.0635529,12.765137 C3.0635529,12.724609 3.0635529,12.685059 3.0635529,12.64502 C3.0768127,12.64502 3.0901642,12.64502 3.103424,12.64502 C3.103424,12.618652 3.103424,12.591797 3.103424,12.564941 C3.1167755,12.564941 3.1300278,12.564941 3.1433792,12.564941 C3.1433792,12.524902 3.1433792,12.485352 3.1433792,12.444824 C3.1567307,12.444824 3.169983,12.444824 3.1833344,12.444824 C3.2099457,12.365234 3.236557,12.285156 3.2631607,12.205078 C3.2765121,12.205078 3.2897644,12.205078 3.3031158,12.205078 C3.3031158,12.178223 3.3031158,12.151855 3.3031158,12.125 C3.3164673,12.125 3.3297272,12.125 3.3430786,12.125 C3.3430786,12.084961 3.3430786,12.044922 3.3430786,12.004883 C3.3563385,12.004883 3.36969,12.004883 3.3830414,12.004883 C3.409645,11.925293 3.4362488,11.845215 3.46286,11.765137 C3.4762115,11.765137 3.4894714,11.765137 3.5028229,11.765137 C3.5028229,11.73877 3.5028229,11.711914 3.5028229,11.685059 C3.5160751,11.685059 3.5294266,11.685059 3.542778,11.685059 C3.5693817,11.60498 3.595993,11.524902 3.6226044,11.4453125 C3.649208,11.431641 3.6758118,11.417969 3.702423,11.405273 C3.702423,11.378418 3.702423,11.3515625 3.702423,11.325195 C3.7157745,11.325195 3.729126,11.325195 3.7423859,11.325195 C3.7423859,11.29834 3.7423859,11.271484 3.7423859,11.244629 C3.7557373,11.244629 3.7689896,11.244629 3.782341,11.244629 C3.782341,11.218262 3.782341,11.191406 3.782341,11.165039 C3.7956924,11.165039 3.8089447,11.165039 3.8222961,11.165039 C3.8222961,11.138184 3.8222961,11.111328 3.8222961,11.084961 C3.8489075,11.071777 3.8755188,11.058105 3.9021225,11.04541 C3.9287262,10.964844 3.955429,10.884766 3.9820404,10.805176 C3.9953003,10.805176 4.0086517,10.805176 4.021904,10.805176 C4.0352554,10.764648 4.048607,10.724609 4.061859,10.685059 C4.0884705,10.671387 4.1151733,10.658203 4.1417847,10.64502 C4.155037,10.591309 4.1683884,10.538086 4.1816406,10.484863 C4.194992,10.484863 4.2083435,10.484863 4.2216034,10.484863 C4.234955,10.444824 4.2482147,10.404785 4.261566,10.364746 C4.28817,10.351074 4.3147736,10.338379 4.341385,10.324707 C4.341385,10.29834 4.341385,10.271484 4.341385,10.244629 C4.3547363,10.244629 4.368088,10.244629 4.3813477,10.244629 C4.394699,10.20459 4.4079514,10.165039 4.421303,10.125 C4.4479065,10.111328 4.474518,10.098145 4.501129,10.084961 C4.501129,10.058105 4.501129,10.03125 4.501129,10.004883 C4.5410843,9.978027 4.5810394,9.951172 4.621002,9.924805 C4.621002,9.897949 4.621002,9.871582 4.621002,9.844727 C4.6476135,9.831543 4.674217,9.818359 4.700821,9.8046875 C4.700821,9.77832 4.700821,9.751465 4.700821,9.724609 C4.7407837,9.698242 4.7807465,9.671387 4.8206024,9.64502 C4.8206024,9.618164 4.8206024,9.591309 4.8206024,9.564941 C4.860565,9.538086 4.900528,9.51123 4.940483,9.484863 C4.940483,9.458008 4.940483,9.431152 4.940483,9.404785 C4.993698,9.364746 5.046913,9.324707 5.1002197,9.284668 C5.1002197,9.2578125 5.1002197,9.231445 5.1002197,9.20459 C5.140091,9.177734 5.180046,9.151367 5.220001,9.124512 C5.220001,9.111328 5.220001,9.098145 5.220001,9.084961 C5.2466125,9.071289 5.273224,9.058105 5.2998276,9.044434 C5.2998276,9.017578 5.2998276,8.991211 5.2998276,8.964355 C5.3797455,8.897949 5.459564,8.831055 5.5394897,8.764648 C5.5394897,8.737793 5.5394897,8.711426 5.5394897,8.68457 C5.73909,8.497559 5.9388885,8.311523 6.138489,8.124512 C6.3248367,7.9248047 6.5112762,7.7246094 6.697632,7.524414 C6.7242355,7.524414 6.750839,7.524414 6.7774506,7.524414 C6.844017,7.444336 6.9105835,7.364746 6.97715,7.2841797 C7.0037537,7.2841797 7.030365,7.2841797 7.0569763,7.2841797 C7.110283,7.2177734 7.163498,7.151367 7.216713,7.0844727 C7.2433167,7.0844727 7.2700195,7.0844727 7.296631,7.0844727 C7.3364944,7.0307617 7.3764496,6.977539 7.4164124,6.9243164 C7.4430237,6.9243164 7.4696274,6.9243164 7.496231,6.9243164 C7.522934,6.8842773 7.5495453,6.8442383 7.5761566,6.804199 C7.6027603,6.804199 7.629364,6.804199 7.6559753,6.804199 C7.682678,6.7646484 7.7092896,6.7246094 7.7358932,6.6845703 C7.762497,6.6845703 7.7891083,6.6845703 7.8157196,6.6845703 C7.829071,6.657715 7.8424225,6.6313477 7.8556747,6.604492 C7.8822784,6.604492 7.9089813,6.604492 7.9355927,6.604492 C7.962204,6.564453 7.9888077,6.524414 8.015411,6.484375 C8.042023,6.484375 8.068726,6.484375 8.095337,6.484375 C8.108589,6.4575195 8.121941,6.430664 8.135193,6.404297 C8.161896,6.404297 8.188507,6.404297 8.215118,6.404297 C8.228371,6.3774414 8.241722,6.351074 8.255074,6.324707 C8.281677,6.324707 8.308289,6.324707 8.3349,6.324707 C8.348251,6.2978516 8.361504,6.270996 8.374855,6.244629 C8.401459,6.244629 8.42807,6.244629 8.454681,6.244629 C8.468033,6.2182617 8.481384,6.1914062 8.494637,6.164551 C8.547852,6.150879 8.601166,6.1376953 8.654373,6.1245117 C8.667725,6.0976562 8.6809845,6.070801 8.694336,6.0444336 C8.734299,6.03125 8.774155,6.017578 8.814117,6.0043945 C8.814117,5.9907227 8.814117,5.9780273 8.814117,5.9643555 C8.840729,5.9643555 8.867332,5.9643555 8.894035,5.9643555 C8.894035,5.951172 8.894035,5.9379883 8.894035,5.9248047 C8.920639,5.9248047 8.94725,5.9248047 8.973862,5.9248047 C8.973862,5.911133 8.973862,5.897461 8.973862,5.8842773 C9.000465,5.8842773 9.027069,5.8842773 9.053772,5.8842773 C9.067032,5.85791 9.080383,5.8310547 9.093643,5.8046875 C9.120247,5.8046875 9.14695,5.8046875 9.173553,5.8046875 C9.173553,5.7910156 9.173553,5.777832 9.173553,5.76416 C9.200165,5.76416 9.226776,5.76416 9.25338,5.76416 C9.25338,5.7509766 9.25338,5.737793 9.25338,5.724121 C9.2799835,5.724121 9.306686,5.724121 9.333298,5.724121 C9.333298,5.7109375 9.333298,5.697754 9.333298,5.6845703 C9.359909,5.6845703 9.386513,5.6845703 9.413116,5.6845703 C9.426468,5.657715 9.439728,5.6308594 9.453079,5.604492 C9.479691,5.604492 9.506294,5.604492 9.532997,5.604492 C9.532997,5.5908203 9.532997,5.578125 9.532997,5.564453 C9.6128235,5.5375977 9.692734,5.510742 9.77256,5.484375 C9.77256,5.4711914 9.77256,5.4575195 9.77256,5.444336 C9.852386,5.4174805 9.932297,5.3911133 10.012123,5.364258 C10.012123,5.350586 10.012123,5.3374023 10.012123,5.3242188 C10.052078,5.3242188 10.092041,5.3242188 10.132004,5.3242188 C10.132004,5.311035 10.132004,5.2973633 10.132004,5.2841797 C10.1586075,5.2841797 10.185211,5.2841797 10.2118225,5.2841797 C10.2118225,5.270996 10.2118225,5.2578125 10.2118225,5.2441406 C10.29174,5.217285 10.371567,5.190918 10.451477,5.164551 C10.451477,5.150879 10.451477,5.1376953 10.451477,5.1240234 C10.491348,5.1240234 10.531303,5.1240234 10.571259,5.1240234 C10.571259,5.11084 10.571259,5.097168 10.571259,5.0844727 C10.59787,5.0844727 10.624481,5.0844727 10.651085,5.0844727 C10.651085,5.070801 10.651085,5.057617 10.651085,5.0444336 C10.69104,5.0444336 10.731003,5.0444336 10.770966,5.0444336 C10.770966,5.0307617 10.770966,5.017578 10.770966,5.0043945 C10.797569,5.0043945 10.824173,5.0043945 10.850784,5.0043945 C10.850784,4.9907227 10.850784,4.977539 10.850784,4.9643555 C10.890747,4.9643555 10.930702,4.9643555 10.970566,4.9643555 C10.970566,4.9506836 10.970566,4.9375 10.970566,4.9243164 C10.997269,4.9243164 11.02388,4.9243164 11.050484,4.9243164 C11.050484,4.911133 11.050484,4.897461 11.050484,4.8842773 C11.170265,4.857422 11.290146,4.8305664 11.409927,4.804199 C11.409927,4.7910156 11.409927,4.777832 11.409927,4.76416 C11.436531,4.76416 11.463135,4.76416 11.489746,4.76416 C11.489746,4.7509766 11.489746,4.737793 11.489746,4.724121 C11.582916,4.710449 11.676094,4.697754 11.769272,4.684082 C11.769272,4.6708984 11.769272,4.6572266 11.769272,4.6445312 C11.809227,4.6445312 11.849182,4.6445312 11.889145,4.6445312 C11.889145,4.6308594 11.889145,4.617676 11.889145,4.604004 C11.9290085,4.604004 11.968964,4.604004 12.008926,4.604004 C12.008926,4.5908203 12.008926,4.5771484 12.008926,4.564453 C12.048889,4.564453 12.088745,4.564453 12.128708,4.564453 C12.128708,4.5507812 12.128708,4.5375977 12.128708,4.523926 C12.2352295,4.510742 12.341759,4.4975586 12.448189,4.484375 C12.448189,4.470703 12.448189,4.4575195 12.448189,4.4438477 C12.501404,4.4438477 12.554718,4.4438477 12.607925,4.4438477 C12.607925,4.430664 12.607925,4.4179688 12.607925,4.404297 C12.661148,4.404297 12.714455,4.404297 12.76767,4.404297 C12.76767,4.3911133 12.76767,4.3774414 12.76767,4.364746 C12.820885,4.364746 12.874191,4.364746 12.927414,4.364746 C12.927414,4.351074 12.927414,4.3374023 12.927414,4.3242188 C12.993973,4.3242188 13.060547,4.3242188 13.127106,4.3242188 C13.127106,4.311035 13.127106,4.2973633 13.127106,4.2841797 C13.260147,4.270996 13.393372,4.2578125 13.526413,4.2441406 C13.526413,4.230957 13.526413,4.2177734 13.526413,4.2041016 C13.606331,4.2041016 13.686157,4.2041016 13.7660675,4.2041016 C13.7660675,4.1904297 13.7660675,4.1777344 13.7660675,4.1640625 C13.859245,4.1640625 13.952423,4.1640625 14.045593,4.1640625 C14.045593,4.150879 14.045593,4.137207 14.045593,4.1245117 C14.138763,4.1245117 14.231941,4.1245117 14.325119,4.1245117 C14.325119,4.11084 14.325119,4.0976562 14.325119,4.0839844 C14.4449005,4.0839844 14.564774,4.0839844 14.684555,4.0839844 C14.684555,4.070801 14.684555,4.057129 14.684555,4.0444336 C14.870903,4.0444336 15.057251,4.0444336 15.243599,4.0444336 C15.551445,3.9589844 16.453812,3.9570312 16.761185,4.0444336 C16.947525,4.0444336 17.13388,4.0444336 17.32022,4.0444336 C17.32022,4.057129 17.32022,4.070801 17.32022,4.0839844 C17.440002,4.0839844 17.559883,4.0839844 17.679665,4.0839844 C17.679665,4.0976562 17.679665,4.11084 17.679665,4.1245117 C17.772842,4.1245117 17.866013,4.1245117 17.959183,4.1245117 C17.959183,4.137207 17.959183,4.150879 17.959183,4.1640625 C18.05236,4.1640625 18.145538,4.1640625 18.238708,4.1640625 C18.238708,4.1777344 18.238708,4.1904297 18.238708,4.2041016 C18.385193,4.2177734 18.531586,4.230957 18.67807,4.2441406 C18.67807,4.2578125 18.67807,4.270996 18.67807,4.2841797 C18.811104,4.2973633 18.944237,4.311035 19.07737,4.3242188 C19.07737,4.3374023 19.07737,4.351074 19.07737,4.364746 C19.183899,4.3774414 19.290329,4.3911133 19.39685,4.404297 C19.39685,4.4179688 19.39685,4.430664 19.39685,4.4438477 C19.450066,4.4438477 19.503372,4.4438477 19.556595,4.4438477 C19.556595,4.4575195 19.556595,4.470703 19.556595,4.484375 C19.609802,4.484375 19.663116,4.484375 19.716331,4.484375 C19.716331,4.4975586 19.716331,4.510742 19.716331,4.523926 C19.769547,4.523926 19.82286,4.523926 19.876068,4.523926 C19.876068,4.5375977 19.876068,4.5507812 19.876068,4.564453 C19.91603,4.564453 19.955894,4.564453 19.99585,4.564453 C19.99585,4.5771484 19.99585,4.5908203 19.99585,4.604004 C20.035812,4.604004 20.075775,4.604004 20.115631,4.604004 C20.115631,4.617676 20.115631,4.6308594 20.115631,4.6445312 C20.155594,4.6445312 20.195557,4.6445312 20.235512,4.6445312 C20.235512,4.6572266 20.235512,4.6708984 20.235512,4.684082 C20.288727,4.684082 20.341942,4.684082 20.395248,4.684082 C20.395248,4.697754 20.395248,4.710449 20.395248,4.724121 C20.43512,4.724121 20.475075,4.724121 20.51503,4.724121 C20.51503,4.737793 20.51503,4.7509766 20.51503,4.76416 C20.581604,4.777832 20.648163,4.7910156 20.714737,4.804199 C20.714737,4.817383 20.714737,4.8305664 20.714737,4.8442383 C20.672394,4.8720703 20.53125,5.0429688 20.51503,5.0844727 C20.51503,5.150879 20.51503,5.217285 20.51503,5.2841797 C20.501678,5.2841797 20.488426,5.2841797 20.475075,5.2841797 C20.475075,5.3374023 20.475075,5.3911133 20.475075,5.444336 C20.461823,5.444336 20.448471,5.444336 20.43512,5.444336 C20.43512,5.4975586 20.43512,5.5512695 20.43512,5.604492 C20.42186,5.604492 20.408508,5.604492 20.395248,5.604492 C20.395248,5.657715 20.395248,5.7109375 20.395248,5.76416 C20.381897,5.76416 20.368546,5.76416 20.355293,5.76416 C20.355293,5.817871 20.355293,5.8710938 20.355293,5.9248047 C20.341942,5.9248047 20.32869,5.9248047 20.315338,5.9248047 C20.315338,6.6445312 20.315338,7.364746 20.315338,8.084473 ZM23.74971,14.725586 C23.789665,14.858887 23.82962,14.9921875 23.869583,15.125977 C23.882843,15.125977 23.896194,15.125977 23.909447,15.125977 C23.909447,15.165527 23.909447,15.205566 23.909447,15.245605 C23.922798,15.245605 23.93615,15.245605 23.949402,15.245605 C23.949402,15.285645 23.949402,15.325195 23.949402,15.365234 C23.962753,15.365234 23.976013,15.365234 23.989365,15.365234 C23.989365,15.405762 23.989365,15.4453125 23.989365,15.485352 C24.002625,15.485352 24.015976,15.485352 24.029327,15.485352 C24.04258,15.579102 24.055931,15.671875 24.069183,15.765625 C24.082535,15.765625 24.095886,15.765625 24.109146,15.765625 C24.189064,16.1792 24.26889,16.592285 24.3488,17.00586 C24.3488,17.152344 24.3488,17.298828 24.3488,17.4458 C24.36206,17.4458 24.375412,17.4458 24.388672,17.4458 C24.388672,17.645508 24.388672,17.845703 24.388672,18.04541 C24.388672,18.572266 24.353477,19.114746 24.228928,19.525879 C24.215668,19.65918 24.202316,19.79248 24.189064,19.925781 C24.175713,19.925781 24.162361,19.925781 24.149109,19.925781 C24.135757,20.032715 24.122498,20.13916 24.109146,20.246094 C24.095886,20.246094 24.082535,20.246094 24.069183,20.246094 C24.055931,20.339355 24.04258,20.432617 24.029327,20.526367 C24.015976,20.526367 24.002625,20.526367 23.989365,20.526367 C23.989365,20.565918 23.989365,20.605957 23.989365,20.646484 C23.976013,20.646484 23.962753,20.646484 23.949402,20.646484 C23.949402,20.686035 23.949402,20.726074 23.949402,20.766113 C23.93615,20.766113 23.922798,20.766113 23.909447,20.766113 C23.909447,20.806152 23.909447,20.846191 23.909447,20.885742 C23.896194,20.885742 23.882843,20.885742 23.869583,20.885742 C23.869583,20.912598 23.869583,20.939453 23.869583,20.96582 C23.856232,20.96582 23.84288,20.96582 23.82962,20.96582 C23.82962,21.006348 23.82962,21.046387 23.82962,21.086426 C23.816269,21.086426 23.803017,21.086426 23.789665,21.086426 C23.789665,21.112793 23.789665,21.13916 23.789665,21.166016 C23.776413,21.166016 23.763062,21.166016 23.74971,21.166016 C23.74971,21.206055 23.74971,21.246094 23.74971,21.286133 C23.73645,21.286133 23.723099,21.286133 23.709839,21.286133 C23.696487,21.339844 23.683136,21.393066 23.669884,21.44629 C23.656532,21.44629 23.64328,21.44629 23.629929,21.44629 C23.629929,21.473145 23.629929,21.499512 23.629929,21.525879 C23.616669,21.525879 23.603317,21.525879 23.589966,21.525879 C23.589966,21.566406 23.589966,21.605957 23.589966,21.645996 C23.576706,21.645996 23.563354,21.645996 23.550102,21.645996 C23.53675,21.699707 23.5234,21.75293 23.510147,21.806152 C23.496796,21.806152 23.483536,21.806152 23.470184,21.806152 C23.456924,21.859863 23.443573,21.912598 23.430222,21.966309 C23.403618,21.979492 23.377014,21.992676 23.350403,22.006348 C23.323792,22.086426 23.297188,22.166504 23.270485,22.246582 C23.243881,22.259766 23.21727,22.27295 23.190659,22.286133 C23.177307,22.339844 23.164055,22.393066 23.150703,22.44629 C23.137451,22.44629 23.1241,22.44629 23.110748,22.44629 C23.097488,22.486328 23.084137,22.526367 23.070877,22.566406 C23.044273,22.57959 23.01757,22.592773 22.990967,22.606445 C22.990967,22.6333 22.990967,22.659668 22.990967,22.686523 C22.977707,22.686523 22.964355,22.686523 22.951004,22.686523 C22.937744,22.726562 22.924393,22.766113 22.91114,22.80664 C22.884537,22.819336 22.857834,22.833008 22.831223,22.846191 C22.831223,22.873047 22.831223,22.899902 22.831223,22.92627 C22.791359,22.953125 22.751404,22.979492 22.711441,23.006348 C22.711441,23.033203 22.711441,23.05957 22.711441,23.086426 C22.671478,23.112793 22.631523,23.139648 22.59166,23.166504 C22.59166,23.192871 22.59166,23.219727 22.59166,23.246582 C22.525093,23.299805 22.458527,23.353027 22.39196,23.406738 C22.39196,23.433105 22.39196,23.45996 22.39196,23.486328 C22.258827,23.606445 22.125694,23.726562 21.99266,23.84668 C21.819565,24.032715 21.64647,24.219727 21.47348,24.40625 C21.446869,24.40625 21.420166,24.40625 21.393555,24.40625 C21.340347,24.473145 21.287125,24.54004 21.233818,24.606934 C21.207214,24.606934 21.180603,24.606934 21.153992,24.606934 C21.127388,24.646484 21.100685,24.686523 21.074081,24.72705 C21.04747,24.72705 21.020859,24.72705 20.994255,24.72705 C20.967651,24.766602 20.94104,24.806152 20.914337,24.84668 C20.887726,24.84668 20.861122,24.84668 20.834518,24.84668 C20.821167,24.873535 20.807907,24.90039 20.794556,24.92627 C20.754593,24.939941 20.714737,24.953125 20.674774,24.966309 C20.674774,24.97998 20.674774,24.993164 20.674774,25.006836 C20.648163,25.006836 20.62156,25.006836 20.594856,25.006836 C20.581604,25.033203 20.568253,25.060059 20.554993,25.086426 C20.51503,25.09961 20.475075,25.113281 20.43512,25.126953 C20.43512,25.139648 20.43512,25.15332 20.43512,25.166504 C20.381897,25.180176 20.32869,25.192871 20.275375,25.206543 C20.262115,25.233398 20.248764,25.260254 20.235512,25.286621 C20.155594,25.313477 20.075775,25.339844 19.99585,25.3667 C19.982597,25.393555 19.969246,25.42041 19.955894,25.446777 C19.90268,25.45996 19.849464,25.473633 19.796158,25.486328 C19.796158,25.499512 19.796158,25.513184 19.796158,25.526367 C19.742935,25.54004 19.689728,25.553223 19.636414,25.566406 C19.636414,25.57959 19.636414,25.593262 19.636414,25.606445 C19.59655,25.606445 19.556595,25.606445 19.516632,25.606445 C19.516632,25.619629 19.516632,25.6333 19.516632,25.646973 C19.49002,25.646973 19.463417,25.646973 19.436813,25.646973 C19.436813,25.659668 19.436813,25.67334 19.436813,25.686523 C19.3835,25.700195 19.330284,25.71289 19.27707,25.726562 C19.27707,25.739746 19.27707,25.753418 19.27707,25.766602 C19.237106,25.766602 19.197151,25.766602 19.157288,25.766602 C19.157288,25.780273 19.157288,25.792969 19.157288,25.80664 C19.130585,25.80664 19.103973,25.80664 19.07737,25.80664 C19.07737,25.819824 19.07737,25.833496 19.07737,25.846191 C19.010803,25.859863 18.944237,25.873047 18.87767,25.88623 C18.87767,25.899902 18.87767,25.913086 18.87767,25.926758 C18.837807,25.926758 18.797852,25.926758 18.757889,25.926758 C18.757889,25.939941 18.757889,25.953613 18.757889,25.966309 C18.717926,25.966309 18.67807,25.966309 18.638107,25.966309 C18.638107,25.97998 18.638107,25.993164 18.638107,26.006836 C18.598145,26.006836 18.55819,26.006836 18.518326,26.006836 C18.518326,26.02002 18.518326,26.033691 18.518326,26.046875 C18.425156,26.060059 18.331879,26.073242 18.238708,26.086914 C18.238708,26.100098 18.238708,26.11377 18.238708,26.126465 C18.132278,26.140137 18.025757,26.15332 17.919228,26.166992 C17.919228,26.180176 17.919228,26.193848 17.919228,26.206543 C17.852753,26.206543 17.786095,26.206543 17.71962,26.206543 C17.71962,26.220215 17.71962,26.233398 17.71962,26.24707 C17.65306,26.24707 17.586487,26.24707 17.519928,26.24707 C17.519928,26.259766 17.519928,26.273438 17.519928,26.286621 C17.440002,26.286621 17.360184,26.286621 17.280266,26.286621 C17.280266,26.300293 17.280266,26.313477 17.280266,26.327148 C17.187088,26.327148 17.093918,26.327148 17.000748,26.327148 C17.000748,26.340332 17.000748,26.353516 17.000748,26.3667 C16.854355,26.3667 16.70787,26.3667 16.561478,26.3667 C16.125275,26.48877 15.094925,26.39502 14.724518,26.286621 C14.644592,26.286621 14.564774,26.286621 14.484856,26.286621 C14.032333,26.166992 13.579628,26.046875 13.127106,25.926758 C13.127106,25.913086 13.127106,25.899902 13.127106,25.88623 C13.100502,25.88623 13.073799,25.88623 13.047195,25.88623 C13.047195,25.873047 13.047195,25.859863 13.047195,25.846191 C13.007324,25.846191 12.967369,25.846191 12.927414,25.846191 C12.927414,25.833496 12.927414,25.819824 12.927414,25.80664 C12.900803,25.80664 12.874191,25.80664 12.847588,25.80664 C12.847588,25.792969 12.847588,25.780273 12.847588,25.766602 C12.807632,25.766602 12.76767,25.766602 12.727707,25.766602 C12.727707,25.753418 12.727707,25.739746 12.727707,25.726562 C12.6744995,25.71289 12.621277,25.700195 12.56797,25.686523 C12.56797,25.67334 12.56797,25.659668 12.56797,25.646973 C12.541367,25.646973 12.514755,25.646973 12.488144,25.646973 C12.488144,25.6333 12.488144,25.619629 12.488144,25.606445 C12.368362,25.566406 12.248489,25.526367 12.128708,25.486328 C12.115448,25.45996 12.102097,25.433105 12.088745,25.406738 C12.062141,25.406738 12.035538,25.406738 12.008926,25.406738 C12.008926,25.393555 12.008926,25.379883 12.008926,25.3667 C11.982315,25.3667 11.955612,25.3667 11.9290085,25.3667 C11.9290085,25.353027 11.9290085,25.339844 11.9290085,25.326172 C11.902405,25.326172 11.875793,25.326172 11.849182,25.326172 C11.849182,25.313477 11.849182,25.299805 11.849182,25.286621 C11.822578,25.286621 11.795876,25.286621 11.769272,25.286621 C11.756012,25.260254 11.7426605,25.233398 11.729401,25.206543 C11.676094,25.192871 11.622879,25.180176 11.569664,25.166504 C11.556313,25.139648 11.542961,25.113281 11.529709,25.086426 C11.503098,25.086426 11.476486,25.086426 11.449783,25.086426 C11.436531,25.060059 11.42318,25.033203 11.409927,25.006836 C11.3832245,25.006836 11.356613,25.006836 11.330002,25.006836 C11.330002,24.993164 11.330002,24.97998 11.330002,24.966309 C11.290047,24.953125 11.250183,24.939941 11.21022,24.92627 C11.196869,24.90039 11.183617,24.873535 11.170265,24.84668 C11.1436615,24.84668 11.11705,24.84668 11.090439,24.84668 C11.063835,24.806152 11.037132,24.766602 11.010529,24.72705 C10.983917,24.72705 10.957306,24.72705 10.930702,24.72705 C10.9040985,24.686523 10.877396,24.646484 10.850784,24.606934 C10.824173,24.606934 10.797569,24.606934 10.770966,24.606934 C10.717651,24.54004 10.664436,24.473145 10.611221,24.40625 C10.58461,24.40625 10.557907,24.40625 10.531303,24.40625 C10.305092,24.166504 10.07869,23.92627 9.852478,23.686523 C9.77256,23.619629 9.692642,23.553223 9.6128235,23.486328 C9.6128235,23.45996 9.6128235,23.433105 9.6128235,23.406738 C9.546249,23.353027 9.479691,23.299805 9.413116,23.246582 C9.413116,23.219727 9.413116,23.192871 9.413116,23.166504 C9.3732605,23.139648 9.333298,23.112793 9.293335,23.086426 C9.293335,23.05957 9.293335,23.033203 9.293335,23.006348 C9.25338,22.979492 9.213516,22.953125 9.173553,22.92627 C9.173553,22.899902 9.173553,22.873047 9.173553,22.846191 C9.14695,22.833008 9.120247,22.819336 9.093643,22.80664 C9.093643,22.779785 9.093643,22.753418 9.093643,22.726562 C9.067032,22.71289 9.040421,22.699707 9.013817,22.686523 C9.013817,22.659668 9.013817,22.6333 9.013817,22.606445 C8.987213,22.592773 8.96051,22.57959 8.933899,22.566406 C8.933899,22.53955 8.933899,22.513184 8.933899,22.486328 C8.907288,22.473145 8.880684,22.459473 8.85408,22.44629 C8.840729,22.393066 8.827469,22.339844 8.814117,22.286133 C8.787506,22.27295 8.760902,22.259766 8.734299,22.246582 C8.734299,22.219727 8.734299,22.192871 8.734299,22.166504 C8.720947,22.166504 8.707596,22.166504 8.694336,22.166504 C8.694336,22.139648 8.694336,22.113281 8.694336,22.086426 C8.6809845,22.086426 8.667725,22.086426 8.654373,22.086426 C8.654373,22.05957 8.654373,22.033203 8.654373,22.006348 C8.641121,22.006348 8.627769,22.006348 8.614418,22.006348 C8.614418,21.979492 8.614418,21.952637 8.614418,21.925781 C8.587814,21.912598 8.561203,21.899414 8.534592,21.88623 C8.494637,21.766113 8.454681,21.645996 8.41481,21.525879 C8.401459,21.525879 8.388107,21.525879 8.374855,21.525879 C8.374855,21.499512 8.374855,21.473145 8.374855,21.44629 C8.361504,21.44629 8.348251,21.44629 8.3349,21.44629 C8.32164,21.393066 8.308289,21.339844 8.294937,21.286133 C8.281677,21.286133 8.268326,21.286133 8.255074,21.286133 C8.255074,21.246094 8.255074,21.206055 8.255074,21.166016 C8.241722,21.166016 8.228371,21.166016 8.215118,21.166016 C8.215118,21.13916 8.215118,21.112793 8.215118,21.086426 C8.201767,21.086426 8.188507,21.086426 8.175156,21.086426 C8.175156,21.046387 8.175156,21.006348 8.175156,20.96582 C8.161896,20.96582 8.148544,20.96582 8.135193,20.96582 C8.135193,20.939453 8.135193,20.912598 8.135193,20.885742 C8.121941,20.885742 8.108589,20.885742 8.095337,20.885742 C8.095337,20.846191 8.095337,20.806152 8.095337,20.766113 C8.081985,20.766113 8.068634,20.766113 8.055374,20.766113 C8.055374,20.726074 8.055374,20.686035 8.055374,20.646484 C8.042023,20.646484 8.028763,20.646484 8.015411,20.646484 C8.015411,20.605957 8.015411,20.565918 8.015411,20.526367 C8.002159,20.526367 7.9888077,20.526367 7.975456,20.526367 C7.975456,20.472656 7.975456,20.419434 7.975456,20.365723 C7.962204,20.365723 7.9488525,20.365723 7.9355927,20.365723 C7.9355927,20.325684 7.9355927,20.286133 7.9355927,20.246094 C7.922241,20.246094 7.90889,20.246094 7.89563,20.246094 C7.815811,19.83252 7.7358932,19.418945 7.6559753,19.00586 C7.6559753,18.859375 7.6559753,18.712402 7.6559753,18.565918 C7.6427155,18.565918 7.629364,18.565918 7.6161118,18.565918 C7.5622253,18.37207 7.616493,17.586426 7.6559753,17.4458 C7.6559753,17.298828 7.6559753,17.152344 7.6559753,17.00586 C7.736557,16.721191 7.7681274,16.35498 7.8556747,16.08545 C7.8556747,16.032227 7.8556747,15.978516 7.8556747,15.925293 C7.869026,15.925293 7.8822784,15.925293 7.89563,15.925293 C7.89563,15.872559 7.89563,15.819336 7.89563,15.765625 C7.90889,15.765625 7.922241,15.765625 7.9355927,15.765625 C7.9355927,15.725586 7.9355927,15.685547 7.9355927,15.645508 C7.9488525,15.645508 7.962204,15.645508 7.975456,15.645508 C7.975456,15.591797 7.975456,15.5390625 7.975456,15.485352 C7.9888077,15.485352 8.002159,15.485352 8.015411,15.485352 C8.015411,15.4453125 8.015411,15.405762 8.015411,15.365234 C8.028763,15.365234 8.042023,15.365234 8.055374,15.365234 C8.055374,15.325195 8.055374,15.285645 8.055374,15.245605 C8.068634,15.245605 8.081985,15.245605 8.095337,15.245605 C8.095337,15.205566 8.095337,15.165527 8.095337,15.125977 C8.108589,15.125977 8.121941,15.125977 8.135193,15.125977 C8.135193,15.098633 8.135193,15.072266 8.135193,15.04541 C8.148544,15.04541 8.161896,15.04541 8.175156,15.04541 C8.175156,15.005371 8.175156,14.965332 8.175156,14.925293 C8.188507,14.925293 8.201767,14.925293 8.215118,14.925293 C8.215118,14.8984375 8.215118,14.87207 8.215118,14.845215 C8.228371,14.845215 8.241722,14.845215 8.255074,14.845215 C8.255074,14.805176 8.255074,14.765137 8.255074,14.725586 C8.268326,14.725586 8.281677,14.725586 8.294937,14.725586 C8.308289,14.671875 8.32164,14.618652 8.3349,14.56543 C8.348251,14.56543 8.361504,14.56543 8.374855,14.56543 C8.374855,14.538574 8.374855,14.512207 8.374855,14.485352 C8.388107,14.485352 8.401459,14.485352 8.41481,14.485352 C8.41481,14.4453125 8.41481,14.405273 8.41481,14.365234 C8.42807,14.365234 8.4414215,14.365234 8.454681,14.365234 C8.468033,14.311523 8.481384,14.258301 8.494637,14.205078 C8.507988,14.205078 8.52124,14.205078 8.534592,14.205078 C8.534592,14.178223 8.534592,14.151855 8.534592,14.125 C8.561203,14.111816 8.587814,14.098633 8.614418,14.085449 C8.614418,14.058594 8.614418,14.031738 8.614418,14.005371 C8.627769,14.005371 8.641121,14.005371 8.654373,14.005371 C8.654373,13.978516 8.654373,13.952148 8.654373,13.925293 C8.667725,13.925293 8.6809845,13.925293 8.694336,13.925293 C8.694336,13.8984375 8.694336,13.87207 8.694336,13.845215 C8.707596,13.845215 8.720947,13.845215 8.734299,13.845215 C8.734299,13.818848 8.734299,13.791504 8.734299,13.765137 C8.760902,13.751953 8.787506,13.738281 8.814117,13.725586 C8.827469,13.672363 8.840729,13.618652 8.85408,13.56543 C8.867332,13.56543 8.880684,13.56543 8.894035,13.56543 C8.907288,13.524902 8.920639,13.485352 8.933899,13.445801 C8.96051,13.432129 8.987213,13.418945 9.013817,13.405273 C9.013817,13.378418 9.013817,13.352051 9.013817,13.325195 C9.027069,13.325195 9.040421,13.325195 9.053772,13.325195 C9.067032,13.285156 9.080383,13.245117 9.093643,13.205078 C9.120247,13.191895 9.14695,13.178711 9.173553,13.165527 C9.173553,13.138184 9.173553,13.111816 9.173553,13.085449 C9.213516,13.058594 9.25338,13.032227 9.293335,13.005371 C9.293335,12.978516 9.293335,12.952148 9.293335,12.925293 C9.333298,12.8984375 9.3732605,12.871582 9.413116,12.845215 C9.413116,12.818359 9.413116,12.791992 9.413116,12.765137 C9.479691,12.711914 9.546249,12.658691 9.6128235,12.60498 C9.6128235,12.578125 9.6128235,12.551758 9.6128235,12.524902 C9.77256,12.378418 9.932297,12.231934 10.092041,12.084961 C10.238434,11.925293 10.384918,11.765137 10.531303,11.60498 C10.557907,11.60498 10.58461,11.60498 10.611221,11.60498 C10.664436,11.538574 10.717651,11.47168 10.770966,11.405273 C10.797569,11.405273 10.824173,11.405273 10.850784,11.405273 C10.877396,11.364746 10.9040985,11.325195 10.930702,11.284668 C10.957306,11.284668 10.983917,11.284668 11.010529,11.284668 C11.037132,11.244629 11.063835,11.205078 11.090439,11.165039 C11.11705,11.165039 11.1436615,11.165039 11.170265,11.165039 C11.183617,11.138184 11.196869,11.111328 11.21022,11.084961 C11.250183,11.071777 11.290047,11.058105 11.330002,11.04541 C11.330002,11.031738 11.330002,11.018066 11.330002,11.004883 C11.356613,11.004883 11.3832245,11.004883 11.409927,11.004883 C11.42318,10.978027 11.436531,10.95166 11.449783,10.924805 C11.489746,10.911621 11.529709,10.897949 11.569664,10.884766 C11.569664,10.871094 11.569664,10.858398 11.569664,10.844727 C11.622879,10.831543 11.676094,10.817871 11.729401,10.805176 C11.7426605,10.77832 11.756012,10.751465 11.769272,10.724609 C11.849182,10.698242 11.9290085,10.671387 12.008926,10.64502 C12.008926,10.631348 12.008926,10.618164 12.008926,10.60498 C12.035538,10.60498 12.062141,10.60498 12.088745,10.60498 C12.102097,10.578125 12.115448,10.55127 12.128708,10.524902 C12.248489,10.484863 12.368362,10.444824 12.488144,10.404785 C12.488144,10.391602 12.488144,10.378418 12.488144,10.364746 C12.514755,10.364746 12.541367,10.364746 12.56797,10.364746 C12.56797,10.351074 12.56797,10.338379 12.56797,10.324707 C12.621277,10.311523 12.6744995,10.29834 12.727707,10.285156 C12.727707,10.271484 12.727707,10.258301 12.727707,10.244629 C12.76767,10.244629 12.807632,10.244629 12.847588,10.244629 C12.847588,10.231445 12.847588,10.218262 12.847588,10.20459 C12.874191,10.20459 12.900803,10.20459 12.927414,10.20459 C12.927414,10.191406 12.927414,10.178223 12.927414,10.165039 C12.967369,10.165039 13.007324,10.165039 13.047195,10.165039 C13.047195,10.151367 13.047195,10.138184 13.047195,10.125 C13.073799,10.125 13.100502,10.125 13.127106,10.125 C13.127106,10.111328 13.127106,10.098145 13.127106,10.084961 C13.166977,10.084961 13.206932,10.084961 13.246887,10.084961 C13.246887,10.071289 13.246887,10.058105 13.246887,10.044922 C13.28685,10.044922 13.326813,10.044922 13.366669,10.044922 C13.366669,10.03125 13.366669,10.018066 13.366669,10.004883 C13.406631,10.004883 13.446594,10.004883 13.48645,10.004883 C13.48645,9.991699 13.48645,9.978027 13.48645,9.964844 C13.579628,9.951172 13.672897,9.938477 13.7660675,9.924805 C13.7660675,9.911621 13.7660675,9.897949 13.7660675,9.885254 C13.81929,9.885254 13.872498,9.885254 13.925812,9.885254 C13.925812,9.871582 13.925812,9.858398 13.925812,9.844727 C13.979027,9.844727 14.032242,9.844727 14.085556,9.844727 C14.085556,9.831543 14.085556,9.818359 14.085556,9.8046875 C14.152115,9.8046875 14.218689,9.8046875 14.285156,9.8046875 C14.285156,9.791504 14.285156,9.77832 14.285156,9.765137 C14.351723,9.765137 14.418289,9.765137 14.484856,9.765137 C14.484856,9.751465 14.484856,9.738281 14.484856,9.724609 C14.564774,9.724609 14.644592,9.724609 14.724518,9.724609 C14.724518,9.711426 14.724518,9.698242 14.724518,9.68457 C14.817688,9.68457 14.910858,9.68457 15.004036,9.68457 C15.004036,9.671387 15.004036,9.658203 15.004036,9.64502 C15.150421,9.64502 15.2969055,9.64502 15.443298,9.64502 C15.583771,9.605957 16.369034,9.550781 16.561478,9.605469 C16.561478,9.618164 16.561478,9.631348 16.561478,9.64502 C16.70787,9.64502 16.854355,9.64502 17.000748,9.64502 C17.000748,9.658203 17.000748,9.671387 17.000748,9.68457 C17.093918,9.68457 17.187088,9.68457 17.280266,9.68457 C17.280266,9.698242 17.280266,9.711426 17.280266,9.724609 C17.360184,9.724609 17.440002,9.724609 17.519928,9.724609 C17.519928,9.738281 17.519928,9.751465 17.519928,9.765137 C17.586487,9.765137 17.65306,9.765137 17.71962,9.765137 C17.71962,9.77832 17.71962,9.791504 17.71962,9.8046875 C17.839401,9.818359 17.959183,9.831543 18.078964,9.844727 C18.078964,9.858398 18.078964,9.871582 18.078964,9.885254 C18.132278,9.885254 18.185493,9.885254 18.238708,9.885254 C18.238708,9.897949 18.238708,9.911621 18.238708,9.924805 C18.331879,9.938477 18.425156,9.951172 18.518326,9.964844 C18.518326,9.978027 18.518326,9.991699 18.518326,10.004883 C18.55819,10.004883 18.598145,10.004883 18.638107,10.004883 C18.638107,10.018066 18.638107,10.03125 18.638107,10.044922 C18.67807,10.044922 18.717926,10.044922 18.757889,10.044922 C18.757889,10.058105 18.757889,10.071289 18.757889,10.084961 C18.797852,10.084961 18.837807,10.084961 18.87767,10.084961 C18.87767,10.098145 18.87767,10.111328 18.87767,10.125 C18.904282,10.125 18.930984,10.125 18.957588,10.125 C18.957588,10.138184 18.957588,10.151367 18.957588,10.165039 C19.104736,10.229492 19.258087,10.213379 19.356888,10.324707 C19.343636,10.324707 19.330284,10.324707 19.316933,10.324707 C19.255615,10.431641 19.16034,10.481934 19.07737,10.564941 C18.917633,10.724609 18.757889,10.884766 18.598145,11.04541 C18.45176,11.205078 18.305275,11.364746 18.15889,11.524902 C18.092316,11.578613 18.025757,11.631836 17.959183,11.685059 C17.959183,11.711914 17.959183,11.73877 17.959183,11.765137 C17.919228,11.77832 17.879364,11.791992 17.839401,11.8046875 C17.82605,11.831543 17.812798,11.858398 17.799446,11.884766 C17.73288,11.937988 17.666313,11.991699 17.599747,12.044922 C17.53328,12.138672 17.466614,12.231934 17.400146,12.324707 C17.373535,12.324707 17.346832,12.324707 17.32022,12.324707 C17.160484,12.498535 17.000748,12.671875 16.841003,12.845215 C16.707962,12.845215 16.574738,12.845215 16.441696,12.845215 C16.391632,12.800293 15.692207,12.768066 15.56308,12.8046875 C15.56308,12.818359 15.56308,12.831543 15.56308,12.845215 C15.443298,12.845215 15.323517,12.845215 15.203735,12.845215 C15.203735,12.858398 15.203735,12.871582 15.203735,12.885254 C15.137169,12.885254 15.070602,12.885254 15.004036,12.885254 C15.004036,12.8984375 15.004036,12.911621 15.004036,12.925293 C14.9374695,12.925293 14.870903,12.925293 14.804337,12.925293 C14.804337,12.938477 14.804337,12.952148 14.804337,12.964844 C14.7511215,12.964844 14.697815,12.964844 14.644592,12.964844 C14.644592,12.978516 14.644592,12.991699 14.644592,13.005371 C14.604637,13.005371 14.564774,13.005371 14.524811,13.005371 C14.524811,13.018555 14.524811,13.032227 14.524811,13.044922 C14.471603,13.044922 14.418289,13.044922 14.365074,13.044922 C14.365074,13.058594 14.365074,13.071777 14.365074,13.085449 C14.33847,13.085449 14.311859,13.085449 14.285156,13.085449 C14.285156,13.098145 14.285156,13.111816 14.285156,13.125 C14.205338,13.138184 14.125412,13.151855 14.045593,13.165527 C14.045593,13.178711 14.045593,13.191895 14.045593,13.205078 C13.992378,13.218262 13.939072,13.231934 13.885849,13.245117 C13.885849,13.258301 13.885849,13.271484 13.885849,13.285156 C13.845894,13.285156 13.805939,13.285156 13.7660675,13.285156 C13.7660675,13.298828 13.7660675,13.312012 13.7660675,13.325195 C13.739464,13.325195 13.712761,13.325195 13.686157,13.325195 C13.686157,13.338379 13.686157,13.352051 13.686157,13.365234 C13.659546,13.365234 13.632935,13.365234 13.606331,13.365234 C13.592979,13.39209 13.579727,13.418945 13.566376,13.445801 C13.486549,13.472168 13.406631,13.498535 13.326714,13.524902 C13.313461,13.552246 13.30011,13.578613 13.28685,13.60498 C13.233536,13.618652 13.180328,13.631836 13.127106,13.645508 C13.100502,13.685059 13.073799,13.725586 13.047195,13.765137 C13.020584,13.765137 12.993973,13.765137 12.967369,13.765137 C12.954018,13.791504 12.940765,13.818848 12.927414,13.845215 C12.900803,13.845215 12.874191,13.845215 12.847588,13.845215 C12.807632,13.8984375 12.76767,13.952148 12.727707,14.005371 C11.981461,14.543945 11.473534,15.344727 11.090439,16.245117 C11.077087,16.339355 11.063736,16.432129 11.050484,16.52539 C11.037132,16.52539 11.02388,16.52539 11.010529,16.52539 C11.010529,16.565918 11.010529,16.605469 11.010529,16.645508 C10.997269,16.645508 10.983917,16.645508 10.970566,16.645508 C10.970566,16.699219 10.970566,16.751953 10.970566,16.805176 C10.957306,16.805176 10.943954,16.805176 10.930702,16.805176 C10.930702,16.872559 10.930702,16.938477 10.930702,17.00586 C10.766571,17.545898 10.764191,18.466309 10.930702,19.00586 C10.943954,19.125977 10.957306,19.246094 10.970566,19.36621 C10.983917,19.36621 10.997269,19.36621 11.010529,19.36621 C11.010529,19.405762 11.010529,19.4458 11.010529,19.486328 C11.02388,19.486328 11.037132,19.486328 11.050484,19.486328 C11.063736,19.579102 11.077087,19.672363 11.090439,19.766113 C11.103699,19.766113 11.11705,19.766113 11.13031,19.766113 C11.13031,19.79248 11.13031,19.819336 11.13031,19.846191 C11.1436615,19.846191 11.157013,19.846191 11.170265,19.846191 C11.170265,19.88623 11.170265,19.925781 11.170265,19.96582 C11.183617,19.96582 11.196869,19.96582 11.21022,19.96582 C11.22348,20.019531 11.236832,20.072754 11.250183,20.126465 C11.263443,20.126465 11.276794,20.126465 11.290047,20.126465 C11.330002,20.246094 11.369965,20.365723 11.409927,20.48584 C11.436531,20.499023 11.463135,20.512695 11.489746,20.526367 C11.503098,20.57959 11.516357,20.632812 11.529709,20.686035 C11.556313,20.699707 11.582916,20.71289 11.609528,20.726074 C11.622879,20.779297 11.63623,20.83252 11.64949,20.885742 C11.6894455,20.912598 11.729401,20.939453 11.769272,20.96582 C11.782623,21.006348 11.795975,21.046387 11.809227,21.086426 C11.822578,21.086426 11.835831,21.086426 11.849182,21.086426 C11.849182,21.112793 11.849182,21.13916 11.849182,21.166016 C11.902405,21.206055 11.955711,21.246094 12.008926,21.286133 C12.659424,22.191406 13.620926,22.711914 14.804337,23.086426 C14.870903,23.086426 14.9374695,23.086426 15.004036,23.086426 C15.004036,23.099121 15.004036,23.112793 15.004036,23.126465 C15.070602,23.126465 15.137169,23.126465 15.203735,23.126465 C15.203735,23.139648 15.203735,23.152832 15.203735,23.166504 C15.323517,23.166504 15.443298,23.166504 15.56308,23.166504 C15.56308,23.179688 15.56308,23.192871 15.56308,23.206055 C15.759155,23.26123 16.30275,23.205566 16.441696,23.166504 C16.561478,23.166504 16.68126,23.166504 16.80104,23.166504 C16.80104,23.152832 16.80104,23.139648 16.80104,23.126465 C16.867615,23.126465 16.934174,23.126465 17.000748,23.126465 C17.000748,23.112793 17.000748,23.099121 17.000748,23.086426 C17.067307,23.086426 17.13388,23.086426 17.20044,23.086426 C17.20044,23.073242 17.20044,23.05957 17.20044,23.046875 C17.253662,23.046875 17.306969,23.046875 17.360184,23.046875 C17.360184,23.033203 17.360184,23.02002 17.360184,23.006348 C17.400146,23.006348 17.440002,23.006348 17.479965,23.006348 C17.479965,22.993164 17.479965,22.979492 17.479965,22.966309 C17.53318,22.966309 17.586487,22.966309 17.63971,22.966309 C17.63971,22.953125 17.63971,22.939941 17.63971,22.92627 C17.666313,22.92627 17.692917,22.92627 17.71962,22.92627 C17.71962,22.913086 17.71962,22.899902 17.71962,22.886719 C17.799446,22.873047 17.879364,22.859863 17.959183,22.846191 C17.959183,22.833008 17.959183,22.819336 17.959183,22.80664 C18.012405,22.792969 18.065712,22.779785 18.118927,22.766113 C18.118927,22.753418 18.118927,22.739746 18.118927,22.726562 C18.238708,22.686523 18.358582,22.646484 18.478363,22.606445 C18.491623,22.57959 18.504974,22.553223 18.518326,22.526367 C18.57154,22.513184 18.624756,22.499512 18.67807,22.486328 C18.691322,22.459473 18.704674,22.433105 18.717926,22.40625 C18.744537,22.40625 18.77124,22.40625 18.797852,22.40625 C18.797852,22.393066 18.797852,22.379883 18.797852,22.36621 C18.824455,22.36621 18.851059,22.36621 18.87767,22.36621 C18.904282,22.326172 18.930984,22.286133 18.957588,22.246582 C18.984192,22.246582 19.010803,22.246582 19.037415,22.246582 C19.050766,22.219727 19.064018,22.192871 19.07737,22.166504 C19.103973,22.166504 19.130585,22.166504 19.157288,22.166504 C19.197151,22.113281 19.237106,22.05957 19.27707,22.006348 C19.30368,22.006348 19.330284,22.006348 19.356888,22.006348 C19.47667,21.873047 19.59655,21.739746 19.716331,21.605957 C19.80951,21.525879 19.90268,21.44629 19.99585,21.36621 C19.99585,21.339844 19.99585,21.312988 19.99585,21.286133 C20.049072,21.246094 20.102379,21.206055 20.155594,21.166016 C20.155594,21.13916 20.155594,21.112793 20.155594,21.086426 C20.182205,21.072754 20.208908,21.05957 20.235512,21.046387 C20.235512,21.019043 20.235512,20.992676 20.235512,20.96582 C20.275375,20.939453 20.315338,20.912598 20.355293,20.885742 C20.355293,20.859375 20.355293,20.83252 20.355293,20.806152 C20.368546,20.806152 20.381897,20.806152 20.395248,20.806152 C20.395248,20.779297 20.395248,20.752441 20.395248,20.726074 C20.42186,20.71289 20.448471,20.699707 20.475075,20.686035 C20.488426,20.632812 20.501678,20.57959 20.51503,20.526367 C20.541641,20.512695 20.568253,20.499023 20.594856,20.48584 C20.594856,20.459473 20.594856,20.432617 20.594856,20.40625 C20.608208,20.40625 20.62156,20.40625 20.634811,20.40625 C20.648163,20.35254 20.661423,20.299316 20.674774,20.246094 C20.688034,20.246094 20.701385,20.246094 20.714737,20.246094 C20.714737,20.206055 20.714737,20.166016 20.714737,20.126465 C20.72799,20.126465 20.74134,20.126465 20.754593,20.126465 C20.767944,20.072754 20.781296,20.019531 20.794556,19.96582 C20.807907,19.96582 20.821167,19.96582 20.834518,19.96582 C20.84777,19.899414 20.861122,19.83252 20.874474,19.766113 C20.887726,19.766113 20.901077,19.766113 20.914337,19.766113 C20.927689,19.672363 20.94104,19.579102 20.9543,19.486328 C20.967651,19.486328 20.980904,19.486328 20.994255,19.486328 C20.994255,19.4458 20.994255,19.405762 20.994255,19.36621 C21.007507,19.36621 21.020859,19.36621 21.03421,19.36621 C21.03421,19.3125 21.03421,19.259277 21.03421,19.206055 C21.04747,19.206055 21.060822,19.206055 21.074081,19.206055 C21.074081,19.13916 21.074081,19.072754 21.074081,19.00586 C21.087433,19.00586 21.100784,19.00586 21.114037,19.00586 C21.114037,18.939453 21.114037,18.872559 21.114037,18.806152 C21.127388,18.806152 21.14064,18.806152 21.153992,18.806152 C21.153992,18.686035 21.153992,18.565918 21.153992,18.4458 C21.25747,18.077148 21.154373,17.600098 21.153992,17.205566 C21.24717,17.13916 21.340347,17.072266 21.433517,17.00586 C21.446869,16.96582 21.460129,16.925781 21.47348,16.885254 C21.633217,16.751953 21.792953,16.61914 21.952698,16.485352 C21.952698,16.458984 21.952698,16.432129 21.952698,16.405273 C21.965958,16.405273 21.97931,16.405273 21.99266,16.405273 C22.045868,16.339355 22.09909,16.271973 22.152397,16.205566 C22.179,16.205566 22.205612,16.205566 22.232224,16.205566 C22.245575,16.1792 22.258827,16.152344 22.272179,16.125488 C22.28543,16.125488 22.298782,16.125488 22.312134,16.125488 C22.431915,15.979004 22.551697,15.832031 22.671478,15.685547 C22.69809,15.685547 22.724792,15.685547 22.751404,15.685547 C22.778008,15.645508 22.804611,15.605469 22.831223,15.56543 C22.857834,15.552246 22.884537,15.5390625 22.91114,15.525879 C22.91114,15.498535 22.91114,15.472168 22.91114,15.4453125 C22.990967,15.378906 23.070877,15.312012 23.150703,15.245605 C23.164055,15.21875 23.177307,15.191895 23.190659,15.165527 C23.21727,15.165527 23.243881,15.165527 23.270485,15.165527 C23.297188,15.125977 23.323792,15.085449 23.350403,15.04541 C23.377014,15.032227 23.403618,15.019043 23.430222,15.005371 C23.430222,14.978516 23.430222,14.95166 23.430222,14.925293 C23.443573,14.925293 23.456924,14.925293 23.470184,14.925293 C23.5234,14.858887 23.576706,14.791992 23.629929,14.725586 C23.669884,14.725586 23.709839,14.725586 23.74971,14.725586 Z"/>
</svg>